<svg width="1506" height="288" viewBox="0 0 1506 288" fill="none" xmlns="http://www.w3.org/2000/svg">
<path d="M180.632 86.94L178.472 151.2C178.472 173.34 180.272 191.97 183.872 207.09C187.652 222.21 194.582 232.65 204.662 238.41C192.242 246.15 179.642 250.02 166.862 250.02C144.362 250.02 130.502 231.84 125.282 195.48H70.2016C66.7816 207.18 65.0716 216.18 65.0716 222.48C65.0716 228.6 65.7916 233.55 67.2316 237.33C53.9116 245.79 42.0316 250.02 31.5916 250.02C15.5716 250.02 7.56164 240.3 7.56164 220.86C7.56164 211.14 10.5316 198.9 16.4716 184.14C22.5916 169.38 30.6016 152.46 40.5016 133.38C50.5816 114.3 56.9716 101.7 59.6716 95.58C57.6916 85.86 55.4416 76.32 52.9216 66.96C62.2816 60.48 71.2816 55.62 79.9216 52.38C88.7416 48.96 98.1916 47.25 108.272 47.25C118.532 47.25 125.642 49.5 129.602 54C139.862 49.5 148.322 47.25 154.982 47.25C161.642 47.25 166.592 48.33 169.832 50.49C173.072 52.65 175.412 55.8 176.852 59.94C179.372 67.14 180.632 76.14 180.632 86.94ZM126.362 93.15H117.722C101.522 124.47 89.4616 149.13 81.5416 167.13H123.392C123.392 147.51 124.382 122.85 126.362 93.15ZM223.701 191.7C223.701 176.58 229.551 137.7 241.251 75.06L226.131 53.46C237.291 46.8 246.651 41.85 254.211 38.61C261.951 35.37 269.601 33.75 277.161 33.75C284.901 33.75 290.571 35.28 294.171 38.34C297.771 41.4 299.571 46.26 299.571 52.92C299.571 64.44 296.061 87.03 289.041 120.69L291.741 122.04C304.701 96.3 323.601 83.43 348.441 83.43C362.481 83.43 373.461 89.46 381.381 101.52C389.301 113.4 393.261 127.89 393.261 144.99C393.261 161.91 389.841 177.21 383.001 190.89C376.341 204.39 367.611 215.37 356.811 223.83C346.191 232.11 334.581 238.5 321.981 243C309.381 247.5 296.871 249.75 284.451 249.75C264.111 249.75 248.901 245.07 238.821 235.71C228.741 226.35 223.701 211.68 223.701 191.7ZM277.161 218.43C297.141 218.43 313.341 211.59 325.761 197.91C338.361 184.23 344.661 168.93 344.661 152.01C344.661 144.27 342.501 137.25 338.181 130.95C334.041 124.65 328.551 121.5 321.711 121.5C314.871 121.5 308.481 124.29 302.541 129.87C296.781 135.45 292.281 142.11 289.041 149.85C285.981 157.59 283.461 166.32 281.481 176.04C278.601 191.34 277.161 205.47 277.161 218.43ZM550.74 101.52C560.82 101.52 569.46 105.57 576.66 113.67C584.04 121.77 587.73 133.56 587.73 149.04C587.73 164.34 585.03 178.56 579.63 191.7C574.23 204.66 567.12 215.28 558.3 223.56C549.48 231.84 539.49 238.32 528.33 243C517.17 247.5 505.74 249.75 494.04 249.75C470.46 249.75 451.83 243.27 438.15 230.31C424.47 217.35 417.63 200.16 417.63 178.74C417.63 149.76 426.9 126.27 445.44 108.27C464.16 90.09 487.92 81 516.72 81C523.2 81 529.68 81.72 536.16 83.16C538.14 89.1 539.22 95.85 539.4 103.41C543.18 102.15 546.96 101.52 550.74 101.52ZM517.53 139.05C517.53 134.01 518.7 128.34 521.04 122.04C523.56 115.74 527.52 110.7 532.92 106.92C509.16 111.96 492.78 121.59 483.78 135.81C476.04 148.05 472.17 160.65 472.17 173.61C472.17 186.57 474.78 197.01 480 204.93C485.4 212.67 492.24 216.54 500.52 216.54C518.88 216.54 531.84 204.57 539.4 180.63C524.82 171.63 517.53 157.77 517.53 139.05ZM658.698 249.75C642.858 249.75 631.788 245.88 625.488 238.14C619.188 230.4 616.038 220.68 616.038 208.98C616.038 197.1 618.018 180.9 621.978 160.38C625.938 139.86 627.918 125.01 627.918 115.83C627.918 106.65 626.028 99.45 622.248 94.23C638.988 85.41 653.118 81 664.638 81C672.018 81 677.328 82.53 680.568 85.59C683.988 88.47 685.698 93.24 685.698 99.9C685.698 106.56 682.908 122.94 677.328 149.04C671.928 174.96 669.228 190.98 669.228 197.1C669.228 203.22 670.938 208.08 674.358 211.68C677.778 215.1 682.278 216.81 687.858 216.81C693.438 216.81 699.378 214.65 705.678 210.33C711.978 205.83 717.108 199.53 721.068 191.43C723.588 176.85 728.538 153.81 735.918 122.31L719.718 100.71C737.898 87.57 755.178 81 771.558 81C779.658 81 785.418 82.53 788.838 85.59C792.438 88.47 794.238 92.97 794.238 99.09C794.238 105.03 790.908 122.22 784.248 150.66C777.768 179.1 774.528 199.35 774.528 211.41C774.528 223.29 777.318 231.66 782.898 236.52C772.818 245.34 762.198 249.75 751.038 249.75C740.058 249.75 732.138 247.32 727.278 242.46C722.418 237.6 719.988 231.21 719.988 223.29L717.288 221.94C711.348 230.58 703.068 237.42 692.448 242.46C682.008 247.32 670.758 249.75 658.698 249.75ZM822.77 145.53C821.51 140.49 820.88 135.81 820.88 131.49C820.88 122.67 823.49 116.01 828.71 111.51C833.93 107.01 840.68 104.76 848.96 104.76C848.96 95.4 846.53 85.23 841.67 74.25C850.49 67.77 858.5 62.91 865.7 59.67C873.08 56.25 880.82 54.54 888.92 54.54C897.02 54.54 902.6 56.07 905.66 59.13C908.9 62.01 910.52 66.51 910.52 72.63C910.52 78.75 909.26 88.29 906.74 101.25C913.94 100.17 921.23 98.64 928.61 96.66C929.87 100.44 930.5 105.3 930.5 111.24C930.5 117.18 928.16 122.76 923.48 127.98C918.98 133.02 912.32 135.54 903.5 135.54H899.45C892.97 164.88 889.73 187.47 889.73 203.31C889.73 219.15 892.52 230.22 898.1 236.52C888.02 245.34 877.31 249.75 865.97 249.75C854.63 249.75 846.44 246.42 841.4 239.76C836.54 232.92 834.11 222.39 834.11 208.17C834.11 199.53 837.26 176.85 843.56 140.13C836.36 141.39 829.43 143.19 822.77 145.53ZM1201.15 129.06L1203.85 130.41C1223.11 97.47 1246.69 81 1274.59 81C1296.37 81 1307.26 91.89 1307.26 113.67C1307.26 123.03 1304.56 138.87 1299.16 161.19C1293.94 183.51 1291.33 200.34 1291.33 211.68C1291.33 223.02 1293.22 231.3 1297 236.52C1287.46 245.34 1277.38 249.75 1266.76 249.75C1246.06 249.75 1235.71 238.59 1235.71 216.27C1235.71 207.99 1238.41 193.95 1243.81 174.15C1249.21 154.35 1251.91 141.48 1251.91 135.54C1251.91 127.44 1248.85 123.39 1242.73 123.39C1237.69 123.39 1232.02 125.64 1225.72 130.14C1219.6 134.46 1213.66 140.4 1207.9 147.96C1202.32 155.34 1197.55 164.79 1193.59 176.31C1189.81 187.65 1187.92 199.26 1187.92 211.14C1187.92 222.84 1189.81 231.3 1193.59 236.52C1184.05 245.34 1173.97 249.75 1163.35 249.75C1142.65 249.75 1132.3 238.59 1132.3 216.27C1132.3 207.99 1135 193.95 1140.4 174.15C1145.8 154.35 1148.5 141.48 1148.5 135.54C1148.5 127.44 1145.44 123.39 1139.32 123.39C1134.28 123.39 1128.61 125.64 1122.31 130.14C1116.19 134.46 1110.25 140.4 1104.49 147.96C1098.91 155.34 1094.14 164.79 1090.18 176.31C1086.4 187.65 1084.51 199.26 1084.51 211.14C1084.51 222.84 1086.4 231.3 1090.18 236.52C1080.64 245.34 1070.56 249.75 1059.94 249.75C1039.24 249.75 1028.89 238.59 1028.89 216.27C1028.89 209.07 1030.69 195.12 1034.29 174.42C1038.07 153.72 1041.94 134.82 1045.9 117.72L1031.86 96.12C1049.68 86.04 1066.15 81 1081.27 81C1096.39 81 1103.95 87.84 1103.95 101.52C1103.95 110.52 1101.88 119.7 1097.74 129.06L1100.44 130.41C1119.7 97.47 1143.28 81 1171.18 81C1181.26 81 1189.18 83.52 1194.94 88.56C1200.88 93.6 1203.85 101.16 1203.85 111.24C1203.85 116.64 1202.95 122.58 1201.15 129.06ZM1408.74 249.75C1384.08 249.75 1365 243.36 1351.5 230.58C1338.18 217.8 1331.52 200.52 1331.52 178.74C1331.52 149.76 1341.42 126.27 1361.22 108.27C1381.2 90.09 1406.22 81 1436.28 81C1453.02 81 1465.71 84.78 1474.35 92.34C1482.99 99.72 1487.31 109.53 1487.31 121.77C1487.31 138.51 1479.12 152.46 1462.74 163.62C1446.54 174.6 1421.43 180.18 1387.41 180.36C1387.95 191.88 1390.56 200.97 1395.24 207.63C1399.92 214.11 1405.77 217.35 1412.79 217.35C1419.81 217.35 1425.84 215.01 1430.88 210.33C1436.1 205.65 1438.71 198 1438.71 187.38C1464.99 187.38 1478.13 193.59 1478.13 206.01C1478.13 216.63 1471.65 226.62 1458.69 235.98C1445.73 245.16 1429.08 249.75 1408.74 249.75ZM1431.69 112.59C1422.51 112.59 1414.05 117.18 1406.31 126.36C1398.75 135.54 1393.26 146.34 1389.84 158.76C1407.84 157.32 1421.34 153.27 1430.34 146.61C1439.52 139.77 1444.11 132.57 1444.11 125.01C1444.11 121.41 1442.94 118.44 1440.6 116.1C1438.44 113.76 1435.47 112.59 1431.69 112.59Z" fill="#E1B7D8" fill-opacity="0.07"/>
<g filter="url(#filter0_d_16_4)">
<path d="M541.012 143.2L540.212 167C540.212 175.2 540.878 182.1 542.212 187.7C543.612 193.3 546.178 197.167 549.912 199.3C545.312 202.167 540.645 203.6 535.912 203.6C527.578 203.6 522.445 196.867 520.512 183.4H500.112C498.845 187.733 498.212 191.067 498.212 193.4C498.212 195.667 498.478 197.5 499.012 198.9C494.078 202.033 489.678 203.6 485.812 203.6C479.878 203.6 476.912 200 476.912 192.8C476.912 189.2 478.012 184.667 480.212 179.2C482.478 173.733 485.445 167.467 489.112 160.4C492.845 153.333 495.212 148.667 496.212 146.4C495.478 142.8 494.645 139.267 493.712 135.8C497.178 133.4 500.512 131.6 503.712 130.4C506.978 129.133 510.478 128.5 514.212 128.5C518.012 128.5 520.645 129.333 522.112 131C525.912 129.333 529.045 128.5 531.512 128.5C533.978 128.5 535.812 128.9 537.012 129.7C538.212 130.5 539.078 131.667 539.612 133.2C540.545 135.867 541.012 139.2 541.012 143.2ZM520.912 145.5H517.712C511.712 157.1 507.245 166.233 504.312 172.9H519.812C519.812 165.633 520.178 156.5 520.912 145.5ZM556.963 182C556.963 176.4 559.13 162 563.463 138.8L557.863 130.8C561.997 128.333 565.463 126.5 568.263 125.3C571.13 124.1 573.963 123.5 576.763 123.5C579.63 123.5 581.73 124.067 583.063 125.2C584.397 126.333 585.063 128.133 585.063 130.6C585.063 134.867 583.763 143.233 581.163 155.7L582.163 156.2C586.963 146.667 593.963 141.9 603.163 141.9C608.363 141.9 612.43 144.133 615.363 148.6C618.297 153 619.763 158.367 619.763 164.7C619.763 170.967 618.497 176.633 615.963 181.7C613.497 186.7 610.263 190.767 606.263 193.9C602.33 196.967 598.03 199.333 593.363 201C588.697 202.667 584.063 203.5 579.463 203.5C571.93 203.5 566.297 201.767 562.563 198.3C558.83 194.833 556.963 189.4 556.963 182ZM576.763 191.9C584.163 191.9 590.163 189.367 594.763 184.3C599.43 179.233 601.763 173.567 601.763 167.3C601.763 164.433 600.963 161.833 599.363 159.5C597.83 157.167 595.797 156 593.263 156C590.73 156 588.363 157.033 586.163 159.1C584.03 161.167 582.363 163.633 581.163 166.5C580.03 169.367 579.097 172.6 578.363 176.2C577.297 181.867 576.763 187.1 576.763 191.9ZM678.089 148.6C681.822 148.6 685.022 150.1 687.689 153.1C690.422 156.1 691.789 160.467 691.789 166.2C691.789 171.867 690.789 177.133 688.789 182C686.789 186.8 684.156 190.733 680.889 193.8C677.622 196.867 673.922 199.267 669.789 201C665.656 202.667 661.422 203.5 657.089 203.5C648.356 203.5 641.456 201.1 636.389 196.3C631.322 191.5 628.789 185.133 628.789 177.2C628.789 166.467 632.222 157.767 639.089 151.1C646.022 144.367 654.822 141 665.489 141C667.889 141 670.289 141.267 672.689 141.8C673.422 144 673.822 146.5 673.889 149.3C675.289 148.833 676.689 148.6 678.089 148.6ZM665.789 162.5C665.789 160.633 666.222 158.533 667.089 156.2C668.022 153.867 669.489 152 671.489 150.6C662.689 152.467 656.622 156.033 653.289 161.3C650.422 165.833 648.989 170.5 648.989 175.3C648.989 180.1 649.956 183.967 651.889 186.9C653.889 189.767 656.422 191.2 659.489 191.2C666.289 191.2 671.089 186.767 673.889 177.9C668.489 174.567 665.789 169.433 665.789 162.5ZM718.073 203.5C712.207 203.5 708.107 202.067 705.773 199.2C703.44 196.333 702.273 192.733 702.273 188.4C702.273 184 703.007 178 704.473 170.4C705.94 162.8 706.673 157.3 706.673 153.9C706.673 150.5 705.973 147.833 704.573 145.9C710.773 142.633 716.007 141 720.273 141C723.007 141 724.973 141.567 726.173 142.7C727.44 143.767 728.073 145.533 728.073 148C728.073 150.467 727.04 156.533 724.973 166.2C722.973 175.8 721.973 181.733 721.973 184C721.973 186.267 722.607 188.067 723.873 189.4C725.14 190.667 726.807 191.3 728.873 191.3C730.94 191.3 733.14 190.5 735.473 188.9C737.807 187.233 739.707 184.9 741.173 181.9C742.107 176.5 743.94 167.967 746.673 156.3L740.673 148.3C747.407 143.433 753.807 141 759.873 141C762.873 141 765.007 141.567 766.273 142.7C767.607 143.767 768.273 145.433 768.273 147.7C768.273 149.9 767.04 156.267 764.573 166.8C762.173 177.333 760.973 184.833 760.973 189.3C760.973 193.7 762.007 196.8 764.073 198.6C760.34 201.867 756.407 203.5 752.273 203.5C748.207 203.5 745.273 202.6 743.473 200.8C741.673 199 740.773 196.633 740.773 193.7L739.773 193.2C737.573 196.4 734.507 198.933 730.573 200.8C726.707 202.6 722.54 203.5 718.073 203.5ZM778.841 164.9C778.374 163.033 778.141 161.3 778.141 159.7C778.141 156.433 779.107 153.967 781.041 152.3C782.974 150.633 785.474 149.8 788.541 149.8C788.541 146.333 787.641 142.567 785.841 138.5C789.107 136.1 792.074 134.3 794.741 133.1C797.474 131.833 800.341 131.2 803.341 131.2C806.341 131.2 808.407 131.767 809.541 132.9C810.741 133.967 811.341 135.633 811.341 137.9C811.341 140.167 810.874 143.7 809.941 148.5C812.607 148.1 815.307 147.533 818.041 146.8C818.507 148.2 818.741 150 818.741 152.2C818.741 154.4 817.874 156.467 816.141 158.4C814.474 160.267 812.007 161.2 808.741 161.2H807.241C804.841 172.067 803.641 180.433 803.641 186.3C803.641 192.167 804.674 196.267 806.741 198.6C803.007 201.867 799.041 203.5 794.841 203.5C790.641 203.5 787.607 202.267 785.741 199.8C783.941 197.267 783.041 193.367 783.041 188.1C783.041 184.9 784.207 176.5 786.541 162.9C783.874 163.367 781.307 164.033 778.841 164.9ZM918.98 158.8L919.98 159.3C927.113 147.1 935.846 141 946.18 141C954.246 141 958.28 145.033 958.28 153.1C958.28 156.567 957.28 162.433 955.28 170.7C953.346 178.967 952.38 185.2 952.38 189.4C952.38 193.6 953.08 196.667 954.48 198.6C950.946 201.867 947.213 203.5 943.28 203.5C935.613 203.5 931.78 199.367 931.78 191.1C931.78 188.033 932.78 182.833 934.78 175.5C936.78 168.167 937.78 163.4 937.78 161.2C937.78 158.2 936.646 156.7 934.38 156.7C932.513 156.7 930.413 157.533 928.08 159.2C925.813 160.8 923.613 163 921.48 165.8C919.413 168.533 917.646 172.033 916.18 176.3C914.78 180.5 914.08 184.8 914.08 189.2C914.08 193.533 914.78 196.667 916.18 198.6C912.646 201.867 908.913 203.5 904.98 203.5C897.313 203.5 893.48 199.367 893.48 191.1C893.48 188.033 894.48 182.833 896.48 175.5C898.48 168.167 899.48 163.4 899.48 161.2C899.48 158.2 898.346 156.7 896.08 156.7C894.213 156.7 892.113 157.533 889.78 159.2C887.513 160.8 885.313 163 883.18 165.8C881.113 168.533 879.346 172.033 877.88 176.3C876.48 180.5 875.78 184.8 875.78 189.2C875.78 193.533 876.48 196.667 877.88 198.6C874.346 201.867 870.613 203.5 866.68 203.5C859.013 203.5 855.18 199.367 855.18 191.1C855.18 188.433 855.846 183.267 857.18 175.6C858.58 167.933 860.013 160.933 861.48 154.6L856.28 146.6C862.88 142.867 868.98 141 874.58 141C880.18 141 882.98 143.533 882.98 148.6C882.98 151.933 882.213 155.333 880.68 158.8L881.68 159.3C888.813 147.1 897.546 141 907.88 141C911.613 141 914.546 141.933 916.68 143.8C918.88 145.667 919.98 148.467 919.98 152.2C919.98 154.2 919.646 156.4 918.98 158.8ZM995.866 203.5C986.732 203.5 979.666 201.133 974.666 196.4C969.732 191.667 967.266 185.267 967.266 177.2C967.266 166.467 970.932 157.767 978.266 151.1C985.666 144.367 994.932 141 1006.07 141C1012.27 141 1016.97 142.4 1020.17 145.2C1023.37 147.933 1024.97 151.567 1024.97 156.1C1024.97 162.3 1021.93 167.467 1015.87 171.6C1009.87 175.667 1000.57 177.733 987.966 177.8C988.166 182.067 989.132 185.433 990.866 187.9C992.599 190.3 994.766 191.5 997.366 191.5C999.966 191.5 1002.2 190.633 1004.07 188.9C1006 187.167 1006.97 184.333 1006.97 180.4C1016.7 180.4 1021.57 182.7 1021.57 187.3C1021.57 191.233 1019.17 194.933 1014.37 198.4C1009.57 201.8 1003.4 203.5 995.866 203.5ZM1004.37 152.7C1000.97 152.7 997.832 154.4 994.966 157.8C992.166 161.2 990.132 165.2 988.866 169.8C995.532 169.267 1000.53 167.767 1003.87 165.3C1007.27 162.767 1008.97 160.1 1008.97 157.3C1008.97 155.967 1008.53 154.867 1007.67 154C1006.87 153.133 1005.77 152.7 1004.37 152.7Z" fill="#E1B7D8"/>
</g>
<defs>
<filter id="filter0_d_16_4" x="472.912" y="123.5" width="556.054" height="88.1" filterUnits="userSpaceOnUse" color-interpolation-filters="sRGB">
<feFlood flood-opacity="0" result="BackgroundImageFix"/>
<feColorMatrix in="SourceAlpha" type="matrix" values="0 0 0 0 0 0 0 0 0 0 0 0 0 0 0 0 0 0 127 0" result="hardAlpha"/>
<feOffset dy="4"/>
<feGaussianBlur stdDeviation="2"/>
<feComposite in2="hardAlpha" operator="out"/>
<feColorMatrix type="matrix" values="0 0 0 0 0 0 0 0 0 0 0 0 0 0 0 0 0 0 0.25 0"/>
<feBlend mode="normal" in2="BackgroundImageFix" result="effect1_dropShadow_16_4"/>
<feBlend mode="normal" in="SourceGraphic" in2="effect1_dropShadow_16_4" result="shape"/>
</filter>
</defs>
</svg>
