<svg width="672" height="113" viewBox="0 0 672 113" fill="none" xmlns="http://www.w3.org/2000/svg">
<g filter="url(#filter0_d_24_24)">
<path d="M4.78854 53.3C4.78854 48.6333 5.78854 43.9 7.78854 39.1C9.78854 34.2333 12.6219 29.7333 16.2885 25.6C19.9552 21.4667 24.7219 18.1 30.5885 15.5C36.5219 12.8333 42.6219 11.5 48.8885 11.5C55.2219 11.5 60.1552 12.6667 63.6885 15C67.2885 17.3333 69.0885 20.5667 69.0885 24.7C69.0885 28.8333 67.7219 32.0667 64.9885 34.4C62.3219 36.6667 59.2552 37.8 55.7885 37.8C52.3219 37.8 49.1885 37.0667 46.3885 35.6C43.6552 34.0667 41.4552 31.9 39.7885 29.1C36.1885 30.8333 33.0885 34.2333 30.4885 39.3C27.8885 44.3667 26.5885 49.4667 26.5885 54.6C26.5885 59.6667 27.4219 63.7 29.0885 66.7C30.7552 69.6333 33.1219 71.1 36.1885 71.1C39.2552 71.1 41.9552 69.5333 44.2885 66.4C46.6885 63.2667 47.8885 59.5 47.8885 55.1C54.6219 55.1 59.4219 55.6333 62.2885 56.7C65.2219 57.7667 66.6885 60.0667 66.6885 63.6C66.6885 69.1333 63.6885 74.3333 57.6885 79.2C51.6885 84.0667 44.1552 86.5 35.0885 86.5C26.0219 86.5 18.6885 83.7 13.0885 78.1C7.55521 72.5 4.78854 64.2333 4.78854 53.3ZM103.15 86.5C94.0169 86.5 86.9503 84.1333 81.9503 79.4C77.0169 74.6667 74.5503 68.2667 74.5503 60.2C74.5503 49.4667 78.2169 40.7667 85.5503 34.1C92.9503 27.3667 102.217 24 113.35 24C119.55 24 124.25 25.4 127.45 28.2C130.65 30.9333 132.25 34.5667 132.25 39.1C132.25 45.3 129.217 50.4667 123.15 54.6C117.15 58.6667 107.85 60.7333 95.2503 60.8C95.4503 65.0667 96.4169 68.4333 98.1503 70.9C99.8836 73.3 102.05 74.5 104.65 74.5C107.25 74.5 109.484 73.6333 111.35 71.9C113.284 70.1667 114.25 67.3333 114.25 63.4C123.984 63.4 128.85 65.7 128.85 70.3C128.85 74.2333 126.45 77.9333 121.65 81.4C116.85 84.8 110.684 86.5 103.15 86.5ZM111.65 35.7C108.25 35.7 105.117 37.4 102.25 40.8C99.4503 44.2 97.4169 48.2 96.1503 52.8C102.817 52.2667 107.817 50.7667 111.15 48.3C114.55 45.7667 116.25 43.1 116.25 40.3C116.25 38.9667 115.817 37.8667 114.95 37C114.15 36.1333 113.05 35.7 111.65 35.7ZM141.273 74.1C141.273 71.4333 141.94 66.2667 143.273 58.6C144.673 50.9333 146.106 43.9333 147.573 37.6L142.373 29.6C150.706 25.8667 156.54 24 159.873 24C163.273 24 164.973 26.1333 164.973 30.4C164.973 32.7333 163.873 37.6 161.673 45L162.673 45.5C167.473 31.1667 173.44 24 180.573 24C183.84 24 186.34 25 188.073 27C189.806 29 190.673 31.2333 190.673 33.7C190.673 37.3667 189.306 40.5 186.573 43.1C183.84 45.7 179.74 47 174.273 47C166.006 47 161.873 55.5 161.873 72.5C161.873 76.6333 162.573 79.6667 163.973 81.6C159.84 84.8667 156.04 86.5 152.573 86.5C145.04 86.5 141.273 82.3667 141.273 74.1ZM195.403 47.9C194.936 46.0333 194.703 44.3 194.703 42.7C194.703 39.4333 195.669 36.9667 197.603 35.3C199.536 33.6333 202.036 32.8 205.103 32.8C205.103 29.3333 204.203 25.5667 202.403 21.5C205.669 19.1 208.636 17.3 211.303 16.1C214.036 14.8333 216.903 14.2 219.903 14.2C222.903 14.2 224.969 14.7667 226.103 15.9C227.303 16.9667 227.903 18.6333 227.903 20.9C227.903 23.1667 227.436 26.7 226.503 31.5C229.169 31.1 231.869 30.5333 234.603 29.8C235.069 31.2 235.303 33 235.303 35.2C235.303 37.4 234.436 39.4667 232.703 41.4C231.036 43.2667 228.569 44.2 225.303 44.2H223.803C221.403 55.0667 220.203 63.4333 220.203 69.3C220.203 75.1667 221.236 79.2667 223.303 81.6C219.569 84.8667 215.603 86.5 211.403 86.5C207.203 86.5 204.169 85.2667 202.303 82.8C200.503 80.2667 199.603 76.3667 199.603 71.1C199.603 67.9 200.769 59.5 203.103 45.9C200.436 46.3667 197.869 47.0333 195.403 47.9ZM274.061 8.2C274.061 10.7333 272.728 12.9333 270.061 14.8C267.395 16.6 264.361 17.5 260.961 17.5C257.561 17.5 254.861 16.8333 252.861 15.5C250.928 14.1667 249.961 12.3667 249.961 10.1C249.961 7.03333 251.395 4.63333 254.261 2.9C257.128 1.16666 260.161 0.299999 263.361 0.299999C266.561 0.299999 269.128 0.966665 271.061 2.3C273.061 3.63333 274.061 5.6 274.061 8.2ZM254.561 86.5C250.428 86.5 247.428 85.4667 245.561 83.4C243.695 81.3333 242.761 78.2 242.761 74C242.761 69.7333 244.895 58.3667 249.161 39.9L243.561 31.5C251.895 26.5 258.461 24 263.261 24C265.995 24 267.928 24.6 269.061 25.8C270.195 26.9333 270.761 28.8 270.761 31.4C270.761 32.4 269.528 38.2667 267.061 49C264.595 59.7333 263.361 67.4 263.361 72C263.361 76.6 264.395 79.8 266.461 81.6C262.728 84.8667 258.761 86.5 254.561 86.5ZM280.531 52.3C280.064 50.8333 279.831 49.3333 279.831 47.8C279.831 44.6 280.731 42.1667 282.531 40.5C284.331 38.8333 286.631 37.9667 289.431 37.9C288.964 35.8333 288.731 33.5667 288.731 31.1C288.731 23.7667 290.631 17.4667 294.431 12.2C298.231 6.86666 303.597 4.2 310.531 4.2C314.331 4.2 317.297 5.33333 319.431 7.59999C321.631 9.86666 322.731 12.5 322.731 15.5C322.731 18.5 321.697 21.0667 319.631 23.2C317.564 25.2667 314.864 26.3 311.531 26.3C308.197 26.3 305.231 25.5 302.631 23.9L301.231 25L304.731 36.9C308.197 36.4333 311.731 35.5333 315.331 34.2C315.797 35.6667 316.031 37.4667 316.031 39.6C316.031 41.6667 315.397 43.6333 314.131 45.5C312.931 47.3 311.164 48.4667 308.831 49C304.564 68.6667 302.431 82.6667 302.431 91C302.431 95.2667 303.464 98.3 305.531 100.1C300.664 103.367 296.331 105 292.531 105C285.064 105 281.331 100.4 281.331 91.2C281.331 85.4667 283.397 71.9333 287.531 50.6C284.531 51.2 282.197 51.7667 280.531 52.3ZM355.995 8.2C355.995 10.7333 354.661 12.9333 351.995 14.8C349.328 16.6 346.295 17.5 342.895 17.5C339.495 17.5 336.795 16.8333 334.795 15.5C332.861 14.1667 331.895 12.3667 331.895 10.1C331.895 7.03333 333.328 4.63333 336.195 2.9C339.061 1.16666 342.095 0.299999 345.295 0.299999C348.495 0.299999 351.061 0.966665 352.995 2.3C354.995 3.63333 355.995 5.6 355.995 8.2ZM336.495 86.5C332.361 86.5 329.361 85.4667 327.495 83.4C325.628 81.3333 324.695 78.2 324.695 74C324.695 69.7333 326.828 58.3667 331.095 39.9L325.495 31.5C333.828 26.5 340.395 24 345.195 24C347.928 24 349.861 24.6 350.995 25.8C352.128 26.9333 352.695 28.8 352.695 31.4C352.695 32.4 351.461 38.2667 348.995 49C346.528 59.7333 345.295 67.4 345.295 72C345.295 76.6 346.328 79.8 348.395 81.6C344.661 84.8667 340.695 86.5 336.495 86.5ZM361.464 60.2C361.464 49.5333 365.131 40.8333 372.464 34.1C379.798 27.3667 389.031 24 400.164 24C405.898 24 410.431 25.1 413.764 27.3C417.098 29.4333 418.764 32.1333 418.764 35.4C418.764 38.6667 417.631 41.1667 415.364 42.9C413.164 44.6333 410.731 45.5 408.064 45.5C405.464 45.5 403.064 44.8 400.864 43.4C398.731 42 397.064 39.9667 395.864 37.3C391.664 39.0333 388.331 42.1 385.864 46.5C383.464 50.9 382.264 55.3 382.264 59.7C382.264 64.1 383.131 67.6667 384.864 70.4C386.598 73.1333 388.864 74.5 391.664 74.5C394.464 74.5 396.731 73.5667 398.464 71.7C400.264 69.8333 401.164 67.0667 401.164 63.4C410.898 63.4 415.764 65.7 415.764 70.3C415.764 74.2333 413.298 77.9333 408.364 81.4C403.431 84.8 396.931 86.5 388.864 86.5C380.798 86.5 374.198 84.1 369.064 79.3C363.998 74.4333 361.464 68.0667 361.464 60.2ZM463.434 71.7L462.434 71.2C460.634 76 458.034 79.7667 454.634 82.5C451.301 85.1667 447.567 86.5 443.434 86.5C437.767 86.5 433.234 84.3667 429.834 80.1C426.434 75.8333 424.734 70.1333 424.734 63C424.734 51.9333 428.434 42.6667 435.834 35.2C443.301 27.7333 452.567 24 463.634 24C466.501 24 469.134 24.2667 471.534 24.8C471.934 26.6667 472.167 28.3 472.234 29.7C475.567 27.5667 479.001 26.5 482.534 26.5C487.401 26.5 489.834 29.1333 489.834 34.4C489.834 36.2667 488.767 41.9 486.634 51.3C484.567 60.7 483.534 67.6667 483.534 72.2C483.534 76.7333 484.567 79.8667 486.634 81.6C482.901 84.8667 479.001 86.5 474.934 86.5C470.934 86.5 468.001 85.3 466.134 82.9C464.334 80.5 463.434 76.7667 463.434 71.7ZM443.534 58.1C443.534 61.3667 444.201 63.9 445.534 65.7C446.934 67.4333 448.901 68.3 451.434 68.3C453.967 68.3 456.467 67.3667 458.934 65.5C461.401 63.6333 463.467 61.0667 465.134 57.8C465.734 51.0667 467.034 43.1 469.034 33.9C462.301 33.9 456.367 36.3333 451.234 41.2C446.101 46.0667 443.534 51.7 443.534 58.1ZM501.067 47.9C500.6 46.0333 500.367 44.3 500.367 42.7C500.367 39.4333 501.333 36.9667 503.267 35.3C505.2 33.6333 507.7 32.8 510.767 32.8C510.767 29.3333 509.867 25.5667 508.067 21.5C511.333 19.1 514.3 17.3 516.967 16.1C519.7 14.8333 522.567 14.2 525.567 14.2C528.567 14.2 530.633 14.7667 531.767 15.9C532.967 16.9667 533.567 18.6333 533.567 20.9C533.567 23.1667 533.1 26.7 532.167 31.5C534.833 31.1 537.533 30.5333 540.267 29.8C540.733 31.2 540.967 33 540.967 35.2C540.967 37.4 540.1 39.4667 538.367 41.4C536.7 43.2667 534.233 44.2 530.967 44.2H529.467C527.067 55.0667 525.867 63.4333 525.867 69.3C525.867 75.1667 526.9 79.2667 528.967 81.6C525.233 84.8667 521.267 86.5 517.067 86.5C512.867 86.5 509.833 85.2667 507.967 82.8C506.167 80.2667 505.267 76.3667 505.267 71.1C505.267 67.9 506.433 59.5 508.767 45.9C506.1 46.3667 503.533 47.0333 501.067 47.9ZM575.025 86.5C565.892 86.5 558.825 84.1333 553.825 79.4C548.892 74.6667 546.425 68.2667 546.425 60.2C546.425 49.4667 550.092 40.7667 557.425 34.1C564.825 27.3667 574.092 24 585.225 24C591.425 24 596.125 25.4 599.325 28.2C602.525 30.9333 604.125 34.5667 604.125 39.1C604.125 45.3 601.092 50.4667 595.025 54.6C589.025 58.6667 579.725 60.7333 567.125 60.8C567.325 65.0667 568.292 68.4333 570.025 70.9C571.759 73.3 573.925 74.5 576.525 74.5C579.125 74.5 581.359 73.6333 583.225 71.9C585.159 70.1667 586.125 67.3333 586.125 63.4C595.859 63.4 600.725 65.7 600.725 70.3C600.725 74.2333 598.325 77.9333 593.525 81.4C588.725 84.8 582.559 86.5 575.025 86.5ZM583.525 35.7C580.125 35.7 576.992 37.4 574.125 40.8C571.325 44.2 569.292 48.2 568.025 52.8C574.692 52.2667 579.692 50.7667 583.025 48.3C586.425 45.7667 588.125 43.1 588.125 40.3C588.125 38.9667 587.692 37.8667 586.825 37C586.025 36.1333 584.925 35.7 583.525 35.7ZM645.048 37.3C642.581 38.0333 640.615 39.1 639.148 40.5C637.681 41.8333 636.381 43.7667 635.248 46.3C646.515 47.9667 654.448 50.3667 659.048 53.5C663.648 56.6333 665.948 61.1 665.948 66.9C665.948 70.5667 664.915 73.7667 662.848 76.5C660.781 79.1667 658.181 81.2 655.048 82.6C648.915 85.2 642.881 86.5 636.948 86.5C620.081 86.5 611.648 82.8667 611.648 75.6C611.648 71.9333 613.281 68.2667 616.548 64.6C618.215 66.9333 620.715 68.9333 624.048 70.6C627.448 72.2667 630.748 73.1 633.948 73.1C639.481 73.1 642.815 70.6667 643.948 65.8C633.815 64.6 626.481 62.3333 621.948 59C617.415 55.6667 615.148 50.9667 615.148 44.9C615.148 40.1 616.715 36.0667 619.848 32.8C623.048 29.5333 626.981 27.2667 631.648 26C636.381 24.6667 641.681 24 647.548 24C653.481 24 658.348 25.1333 662.148 27.4C666.015 29.6 667.948 32.3 667.948 35.5C667.948 38.7 666.815 41.1667 664.548 42.9C662.348 44.6333 659.915 45.5 657.248 45.5C654.648 45.5 652.248 44.8 650.048 43.4C647.915 42 646.248 39.9667 645.048 37.3Z" fill="#E1B7D8"/>
</g>
<defs>
<filter id="filter0_d_24_24" x="0.788544" y="0.299805" width="671.159" height="112.7" filterUnits="userSpaceOnUse" color-interpolation-filters="sRGB">
<feFlood flood-opacity="0" result="BackgroundImageFix"/>
<feColorMatrix in="SourceAlpha" type="matrix" values="0 0 0 0 0 0 0 0 0 0 0 0 0 0 0 0 0 0 127 0" result="hardAlpha"/>
<feOffset dy="4"/>
<feGaussianBlur stdDeviation="2"/>
<feComposite in2="hardAlpha" operator="out"/>
<feColorMatrix type="matrix" values="0 0 0 0 0 0 0 0 0 0 0 0 0 0 0 0 0 0 0.25 0"/>
<feBlend mode="normal" in2="BackgroundImageFix" result="effect1_dropShadow_24_24"/>
<feBlend mode="normal" in="SourceGraphic" in2="effect1_dropShadow_24_24" result="shape"/>
</filter>
</defs>
</svg>
