<svg width="1364" height="288" viewBox="0 0 1364 288" fill="none" xmlns="http://www.w3.org/2000/svg">
<path d="M52.8367 160.11C52.8367 147.51 55.5367 134.73 60.9367 121.77C66.3367 108.63 73.9867 96.48 83.8867 85.32C93.7867 74.16 106.657 65.07 122.497 58.05C138.517 50.85 154.987 47.25 171.907 47.25C189.007 47.25 202.327 50.4 211.867 56.7C221.587 63 226.447 71.73 226.447 82.89C226.447 94.05 222.757 102.78 215.377 109.08C208.177 115.2 199.897 118.26 190.537 118.26C181.177 118.26 172.717 116.28 165.157 112.32C157.777 108.18 151.837 102.33 147.337 94.77C137.617 99.45 129.247 108.63 122.227 122.31C115.207 135.99 111.697 149.76 111.697 163.62C111.697 177.3 113.947 188.19 118.447 196.29C122.947 204.21 129.337 208.17 137.617 208.17C145.897 208.17 153.187 203.94 159.487 195.48C165.967 187.02 169.207 176.85 169.207 164.97C187.387 164.97 200.347 166.41 208.087 169.29C216.007 172.17 219.967 178.38 219.967 187.92C219.967 202.86 211.867 216.9 195.667 230.04C179.467 243.18 159.127 249.75 134.647 249.75C110.167 249.75 90.3667 242.19 75.2467 227.07C60.3067 211.95 52.8367 189.63 52.8367 160.11ZM385.103 101.52C395.183 101.52 403.823 105.57 411.023 113.67C418.403 121.77 422.093 133.56 422.093 149.04C422.093 164.34 419.393 178.56 413.993 191.7C408.593 204.66 401.483 215.28 392.663 223.56C383.843 231.84 373.853 238.32 362.693 243C351.533 247.5 340.103 249.75 328.403 249.75C304.823 249.75 286.193 243.27 272.513 230.31C258.833 217.35 251.993 200.16 251.993 178.74C251.993 149.76 261.263 126.27 279.803 108.27C298.523 90.09 322.283 81 351.083 81C357.563 81 364.043 81.72 370.523 83.16C372.503 89.1 373.583 95.85 373.763 103.41C377.543 102.15 381.323 101.52 385.103 101.52ZM351.893 139.05C351.893 134.01 353.063 128.34 355.403 122.04C357.923 115.74 361.883 110.7 367.283 106.92C343.523 111.96 327.143 121.59 318.143 135.81C310.403 148.05 306.533 160.65 306.533 173.61C306.533 186.57 309.143 197.01 314.363 204.93C319.763 212.67 326.603 216.54 334.883 216.54C353.243 216.54 366.203 204.57 373.763 180.63C359.183 171.63 351.893 157.77 351.893 139.05ZM489.551 249.75C478.931 249.75 471.101 246.96 466.061 241.38C461.021 235.8 458.501 228.42 458.501 219.24C458.501 210.06 460.301 195.12 463.901 174.42C467.681 153.72 471.551 134.82 475.511 117.72L461.471 96.12C479.291 86.04 495.761 81 510.881 81C526.001 81 533.561 87.84 533.561 101.52C533.561 110.52 531.491 119.7 527.351 129.06L530.051 130.41C549.311 97.47 573.791 81 603.491 81C625.271 81 636.161 91.89 636.161 113.67C636.161 123.03 633.461 138.87 628.061 161.19C622.841 183.51 620.231 200.34 620.231 211.68C620.231 223.02 622.121 231.3 625.901 236.52C616.361 245.34 606.281 249.75 595.661 249.75C574.961 249.75 564.611 238.59 564.611 216.27C564.611 207.99 567.311 193.95 572.711 174.15C578.111 154.35 580.811 141.48 580.811 135.54C580.811 127.44 577.751 123.39 571.631 123.39C566.591 123.39 560.831 125.64 554.351 130.14C547.871 134.46 541.571 140.4 535.451 147.96C529.511 155.34 524.471 164.79 520.331 176.31C516.191 187.65 514.121 199.26 514.121 211.14C514.121 222.84 516.011 231.3 519.791 236.52C510.251 245.34 500.171 249.75 489.551 249.75ZM677.151 145.53C675.891 140.49 675.261 135.81 675.261 131.49C675.261 122.67 677.871 116.01 683.091 111.51C688.311 107.01 695.061 104.76 703.341 104.76C703.341 95.4 700.911 85.23 696.051 74.25C704.871 67.77 712.881 62.91 720.081 59.67C727.461 56.25 735.201 54.54 743.301 54.54C751.401 54.54 756.981 56.07 760.041 59.13C763.281 62.01 764.901 66.51 764.901 72.63C764.901 78.75 763.641 88.29 761.121 101.25C768.321 100.17 775.611 98.64 782.991 96.66C784.251 100.44 784.881 105.3 784.881 111.24C784.881 117.18 782.541 122.76 777.861 127.98C773.361 133.02 766.701 135.54 757.881 135.54H753.831C747.351 164.88 744.111 187.47 744.111 203.31C744.111 219.15 746.901 230.22 752.481 236.52C742.401 245.34 731.691 249.75 720.351 249.75C709.011 249.75 700.821 246.42 695.781 239.76C690.921 232.92 688.491 222.39 688.491 208.17C688.491 199.53 691.641 176.85 697.941 140.13C690.741 141.39 683.811 143.19 677.151 145.53ZM913.559 209.79L910.859 208.44C905.999 221.4 898.979 231.57 889.799 238.95C880.799 246.15 870.719 249.75 859.559 249.75C844.259 249.75 832.019 243.99 822.839 232.47C813.659 220.95 809.069 205.56 809.069 186.3C809.069 156.42 819.059 131.4 839.039 111.24C859.199 91.08 884.219 81 914.099 81C921.839 81 928.949 81.72 935.429 83.16C936.509 88.2 937.139 92.61 937.319 96.39C946.319 90.63 955.589 87.75 965.129 87.75C978.269 87.75 984.839 94.86 984.839 109.08C984.839 114.12 981.959 129.33 976.199 154.71C970.619 180.09 967.829 198.9 967.829 211.14C967.829 223.38 970.619 231.84 976.199 236.52C966.119 245.34 955.589 249.75 944.609 249.75C933.809 249.75 925.889 246.51 920.849 240.03C915.989 233.55 913.559 223.47 913.559 209.79ZM859.829 173.07C859.829 181.89 861.629 188.73 865.229 193.59C869.009 198.27 874.319 200.61 881.159 200.61C887.999 200.61 894.749 198.09 901.409 193.05C908.069 188.01 913.649 181.08 918.149 172.26C919.769 154.08 923.279 132.57 928.679 107.73C910.499 107.73 894.479 114.3 880.619 127.44C866.759 140.58 859.829 155.79 859.829 173.07ZM1020.03 178.74C1020.03 149.94 1029.93 126.45 1049.73 108.27C1069.53 90.09 1094.46 81 1124.52 81C1140 81 1152.24 83.97 1161.24 89.91C1170.24 95.67 1174.74 102.96 1174.74 111.78C1174.74 120.6 1171.68 127.35 1165.56 132.03C1159.62 136.71 1153.05 139.05 1145.85 139.05C1138.83 139.05 1132.35 137.16 1126.41 133.38C1120.65 129.6 1116.15 124.11 1112.91 116.91C1101.57 121.59 1092.57 129.87 1085.91 141.75C1079.43 153.63 1076.19 165.51 1076.19 177.39C1076.19 189.27 1078.53 198.9 1083.21 206.28C1087.89 213.66 1094.01 217.35 1101.57 217.35C1109.13 217.35 1115.25 214.83 1119.93 209.79C1124.79 204.75 1127.22 197.28 1127.22 187.38C1153.5 187.38 1166.64 193.59 1166.64 206.01C1166.64 216.63 1159.98 226.62 1146.66 235.98C1133.34 245.16 1115.79 249.75 1094.01 249.75C1072.23 249.75 1054.41 243.27 1040.55 230.31C1026.87 217.17 1020.03 199.98 1020.03 178.74ZM1208.95 145.53C1207.69 140.49 1207.06 135.81 1207.06 131.49C1207.06 122.67 1209.67 116.01 1214.89 111.51C1220.11 107.01 1226.86 104.76 1235.14 104.76C1235.14 95.4 1232.71 85.23 1227.85 74.25C1236.67 67.77 1244.68 62.91 1251.88 59.67C1259.26 56.25 1267 54.54 1275.1 54.54C1283.2 54.54 1288.78 56.07 1291.84 59.13C1295.08 62.01 1296.7 66.51 1296.7 72.63C1296.7 78.75 1295.44 88.29 1292.92 101.25C1300.12 100.17 1307.41 98.64 1314.79 96.66C1316.05 100.44 1316.68 105.3 1316.68 111.24C1316.68 117.18 1314.34 122.76 1309.66 127.98C1305.16 133.02 1298.5 135.54 1289.68 135.54H1285.63C1279.15 164.88 1275.91 187.47 1275.91 203.31C1275.91 219.15 1278.7 230.22 1284.28 236.52C1274.2 245.34 1263.49 249.75 1252.15 249.75C1240.81 249.75 1232.62 246.42 1227.58 239.76C1222.72 232.92 1220.29 222.39 1220.29 208.17C1220.29 199.53 1223.44 176.85 1229.74 140.13C1222.54 141.39 1215.61 143.19 1208.95 145.53Z" fill="#E1B7D8" fill-opacity="0.07"/>
<g filter="url(#filter0_d_40_2)">
<path d="M460.477 170.3C460.477 165.633 461.477 160.9 463.477 156.1C465.477 151.233 468.31 146.733 471.977 142.6C475.643 138.467 480.41 135.1 486.277 132.5C492.21 129.833 498.31 128.5 504.577 128.5C510.91 128.5 515.843 129.667 519.377 132C522.977 134.333 524.777 137.567 524.777 141.7C524.777 145.833 523.41 149.067 520.677 151.4C518.01 153.667 514.943 154.8 511.477 154.8C508.01 154.8 504.877 154.067 502.077 152.6C499.343 151.067 497.143 148.9 495.477 146.1C491.877 147.833 488.777 151.233 486.177 156.3C483.577 161.367 482.277 166.467 482.277 171.6C482.277 176.667 483.11 180.7 484.777 183.7C486.443 186.633 488.81 188.1 491.877 188.1C494.943 188.1 497.643 186.533 499.977 183.4C502.377 180.267 503.577 176.5 503.577 172.1C510.31 172.1 515.11 172.633 517.977 173.7C520.91 174.767 522.377 177.067 522.377 180.6C522.377 186.133 519.377 191.333 513.377 196.2C507.377 201.067 499.843 203.5 490.777 203.5C481.71 203.5 474.377 200.7 468.777 195.1C463.243 189.5 460.477 181.233 460.477 170.3ZM579.538 148.6C583.272 148.6 586.472 150.1 589.138 153.1C591.872 156.1 593.238 160.467 593.238 166.2C593.238 171.867 592.238 177.133 590.238 182C588.238 186.8 585.605 190.733 582.338 193.8C579.072 196.867 575.372 199.267 571.238 201C567.105 202.667 562.872 203.5 558.538 203.5C549.805 203.5 542.905 201.1 537.838 196.3C532.772 191.5 530.238 185.133 530.238 177.2C530.238 166.467 533.672 157.767 540.538 151.1C547.472 144.367 556.272 141 566.938 141C569.338 141 571.738 141.267 574.138 141.8C574.872 144 575.272 146.5 575.338 149.3C576.738 148.833 578.138 148.6 579.538 148.6ZM567.238 162.5C567.238 160.633 567.672 158.533 568.538 156.2C569.472 153.867 570.938 152 572.938 150.6C564.138 152.467 558.072 156.033 554.738 161.3C551.872 165.833 550.438 170.5 550.438 175.3C550.438 180.1 551.405 183.967 553.338 186.9C555.338 189.767 557.872 191.2 560.938 191.2C567.738 191.2 572.538 186.767 575.338 177.9C569.938 174.567 567.238 169.433 567.238 162.5ZM614.223 203.5C610.289 203.5 607.389 202.467 605.523 200.4C603.656 198.333 602.723 195.6 602.723 192.2C602.723 188.8 603.389 183.267 604.723 175.6C606.123 167.933 607.556 160.933 609.023 154.6L603.823 146.6C610.423 142.867 616.523 141 622.123 141C627.723 141 630.523 143.533 630.523 148.6C630.523 151.933 629.756 155.333 628.223 158.8L629.223 159.3C636.356 147.1 645.423 141 656.423 141C664.489 141 668.523 145.033 668.523 153.1C668.523 156.567 667.523 162.433 665.523 170.7C663.589 178.967 662.623 185.2 662.623 189.4C662.623 193.6 663.323 196.667 664.723 198.6C661.189 201.867 657.456 203.5 653.523 203.5C645.856 203.5 642.023 199.367 642.023 191.1C642.023 188.033 643.023 182.833 645.023 175.5C647.023 168.167 648.023 163.4 648.023 161.2C648.023 158.2 646.889 156.7 644.623 156.7C642.756 156.7 640.623 157.533 638.223 159.2C635.823 160.8 633.489 163 631.223 165.8C629.023 168.533 627.156 172.033 625.623 176.3C624.089 180.5 623.323 184.8 623.323 189.2C623.323 193.533 624.023 196.667 625.423 198.6C621.889 201.867 618.156 203.5 614.223 203.5ZM679.704 164.9C679.237 163.033 679.004 161.3 679.004 159.7C679.004 156.433 679.971 153.967 681.904 152.3C683.837 150.633 686.337 149.8 689.404 149.8C689.404 146.333 688.504 142.567 686.704 138.5C689.971 136.1 692.937 134.3 695.604 133.1C698.337 131.833 701.204 131.2 704.204 131.2C707.204 131.2 709.271 131.767 710.404 132.9C711.604 133.967 712.204 135.633 712.204 137.9C712.204 140.167 711.737 143.7 710.804 148.5C713.471 148.1 716.171 147.533 718.904 146.8C719.371 148.2 719.604 150 719.604 152.2C719.604 154.4 718.737 156.467 717.004 158.4C715.337 160.267 712.871 161.2 709.604 161.2H708.104C705.704 172.067 704.504 180.433 704.504 186.3C704.504 192.167 705.537 196.267 707.604 198.6C703.871 201.867 699.904 203.5 695.704 203.5C691.504 203.5 688.471 202.267 686.604 199.8C684.804 197.267 683.904 193.367 683.904 188.1C683.904 184.9 685.071 176.5 687.404 162.9C684.737 163.367 682.171 164.033 679.704 164.9ZM763.263 188.7L762.263 188.2C760.463 193 757.863 196.767 754.463 199.5C751.129 202.167 747.396 203.5 743.263 203.5C737.596 203.5 733.063 201.367 729.663 197.1C726.263 192.833 724.563 187.133 724.563 180C724.563 168.933 728.263 159.667 735.663 152.2C743.129 144.733 752.396 141 763.463 141C766.329 141 768.963 141.267 771.363 141.8C771.763 143.667 771.996 145.3 772.063 146.7C775.396 144.567 778.829 143.5 782.363 143.5C787.229 143.5 789.663 146.133 789.663 151.4C789.663 153.267 788.596 158.9 786.463 168.3C784.396 177.7 783.363 184.667 783.363 189.2C783.363 193.733 784.396 196.867 786.463 198.6C782.729 201.867 778.829 203.5 774.763 203.5C770.763 203.5 767.829 202.3 765.963 199.9C764.163 197.5 763.263 193.767 763.263 188.7ZM743.363 175.1C743.363 178.367 744.029 180.9 745.363 182.7C746.763 184.433 748.729 185.3 751.263 185.3C753.796 185.3 756.296 184.367 758.763 182.5C761.229 180.633 763.296 178.067 764.963 174.8C765.563 168.067 766.863 160.1 768.863 150.9C762.129 150.9 756.196 153.333 751.063 158.2C745.929 163.067 743.363 168.7 743.363 175.1ZM798.695 177.2C798.695 166.533 802.362 157.833 809.695 151.1C817.029 144.367 826.262 141 837.395 141C843.129 141 847.662 142.1 850.995 144.3C854.329 146.433 855.995 149.133 855.995 152.4C855.995 155.667 854.862 158.167 852.595 159.9C850.395 161.633 847.962 162.5 845.295 162.5C842.695 162.5 840.295 161.8 838.095 160.4C835.962 159 834.295 156.967 833.095 154.3C828.895 156.033 825.562 159.1 823.095 163.5C820.695 167.9 819.495 172.3 819.495 176.7C819.495 181.1 820.362 184.667 822.095 187.4C823.829 190.133 826.095 191.5 828.895 191.5C831.695 191.5 833.962 190.567 835.695 188.7C837.495 186.833 838.395 184.067 838.395 180.4C848.129 180.4 852.995 182.7 852.995 187.3C852.995 191.233 850.529 194.933 845.595 198.4C840.662 201.8 834.162 203.5 826.095 203.5C818.029 203.5 811.429 201.1 806.295 196.3C801.229 191.433 798.695 185.067 798.695 177.2ZM864.665 164.9C864.198 163.033 863.965 161.3 863.965 159.7C863.965 156.433 864.932 153.967 866.865 152.3C868.798 150.633 871.298 149.8 874.365 149.8C874.365 146.333 873.465 142.567 871.665 138.5C874.932 136.1 877.898 134.3 880.565 133.1C883.298 131.833 886.165 131.2 889.165 131.2C892.165 131.2 894.232 131.767 895.365 132.9C896.565 133.967 897.165 135.633 897.165 137.9C897.165 140.167 896.698 143.7 895.765 148.5C898.432 148.1 901.132 147.533 903.865 146.8C904.332 148.2 904.565 150 904.565 152.2C904.565 154.4 903.698 156.467 901.965 158.4C900.298 160.267 897.832 161.2 894.565 161.2H893.065C890.665 172.067 889.465 180.433 889.465 186.3C889.465 192.167 890.498 196.267 892.565 198.6C888.832 201.867 884.865 203.5 880.665 203.5C876.465 203.5 873.432 202.267 871.565 199.8C869.765 197.267 868.865 193.367 868.865 188.1C868.865 184.9 870.032 176.5 872.365 162.9C869.698 163.367 867.132 164.033 864.665 164.9Z" fill="#E1B7D8"/>
</g>
<defs>
<filter id="filter0_d_40_2" x="456.477" y="128.5" width="452.088" height="83" filterUnits="userSpaceOnUse" color-interpolation-filters="sRGB">
<feFlood flood-opacity="0" result="BackgroundImageFix"/>
<feColorMatrix in="SourceAlpha" type="matrix" values="0 0 0 0 0 0 0 0 0 0 0 0 0 0 0 0 0 0 127 0" result="hardAlpha"/>
<feOffset dy="4"/>
<feGaussianBlur stdDeviation="2"/>
<feComposite in2="hardAlpha" operator="out"/>
<feColorMatrix type="matrix" values="0 0 0 0 0 0 0 0 0 0 0 0 0 0 0 0 0 0 0.25 0"/>
<feBlend mode="normal" in2="BackgroundImageFix" result="effect1_dropShadow_40_2"/>
<feBlend mode="normal" in="SourceGraphic" in2="effect1_dropShadow_40_2" result="shape"/>
</filter>
</defs>
</svg>
