<svg width="1875" height="297" viewBox="0 0 1875 297" fill="none" xmlns="http://www.w3.org/2000/svg">
<path d="M77.7662 250.02C67.1462 250.02 59.3162 246.69 54.2762 240.03C49.2362 233.19 46.7162 223.11 46.7162 209.79C46.7162 196.29 52.3862 158.22 63.7262 95.58L49.4162 66.69C69.7562 53.55 88.2962 46.98 105.036 46.98C115.656 46.98 122.226 52.02 124.746 62.1C145.086 61.56 170.466 56.97 200.886 48.33C202.326 54.27 203.046 60.12 203.046 65.88C203.046 80.46 198.186 91.44 188.466 98.82C178.926 106.2 166.596 109.89 151.476 109.89C141.216 109.89 131.136 107.73 121.236 103.41C119.796 111.51 117.276 124.74 113.676 143.1C120.336 144.36 126.006 144.99 130.686 144.99C138.066 143.55 146.166 141.48 154.986 138.78C155.886 141.84 156.336 146.88 156.336 153.9C156.336 160.74 153.546 166.23 147.966 170.37C142.386 174.51 136.086 176.58 129.066 176.58C122.226 176.58 115.206 175.77 108.006 174.15C106.026 185.49 105.036 196.2 105.036 206.28H148.776C162.456 204.3 176.226 200.79 190.086 195.75C191.166 198.99 191.706 203.4 191.706 208.98C191.706 219.6 188.556 229.05 182.256 237.33C176.136 245.61 167.586 249.75 156.606 249.75C150.846 249.75 142.386 248.58 131.226 246.24C120.246 244.08 112.056 242.73 106.656 242.19C98.0162 247.41 88.3862 250.02 77.7662 250.02ZM299.474 218.97L286.514 195.21C274.634 206.19 268.694 216.36 268.694 225.72C268.694 230.22 269.414 234.36 270.854 238.14C258.074 245.88 246.014 249.75 234.674 249.75C227.114 249.75 221.084 247.41 216.584 242.73C212.084 237.87 209.834 231.57 209.834 223.83C209.834 212.31 214.874 201.6 224.954 191.7C235.214 181.62 247.184 173.25 260.864 166.59L268.694 162.81L252.494 133.11C245.474 120.15 235.034 111.33 221.174 106.65C232.334 89.55 246.914 81 264.914 81C273.014 81 279.854 83.25 285.434 87.75C291.014 92.07 297.044 100.17 303.524 112.05L315.404 133.92C326.204 123.66 331.604 114.03 331.604 105.03C331.604 100.53 330.884 96.39 329.444 92.61C342.224 84.87 354.284 81 365.624 81C373.184 81 379.214 83.43 383.714 88.29C388.214 92.97 390.464 99.18 390.464 106.92C390.464 118.44 385.334 129.24 375.074 139.32C364.994 149.22 353.114 157.5 339.434 164.16L333.494 167.13L350.504 197.91C357.524 211.23 367.964 220.05 381.824 224.37C370.484 241.29 355.814 249.75 337.814 249.75C329.534 249.75 322.694 247.59 317.294 243.27C311.894 238.95 305.954 230.85 299.474 218.97ZM450.257 296.73C439.097 296.73 431.267 293.94 426.767 288.36C422.447 282.96 420.287 275.04 420.287 264.6C420.287 254.34 422.447 233.55 426.767 202.23C431.267 170.91 435.587 144.18 439.727 122.04L424.607 100.44C435.767 93.96 445.397 89.1 453.497 85.86C461.597 82.44 469.607 80.73 477.527 80.73C490.487 80.73 496.967 89.28 496.967 106.38C496.967 108.72 496.607 113.49 495.887 120.69L498.587 122.04C503.807 109.08 511.367 99 521.267 91.8C531.167 84.42 542.777 80.73 556.097 80.73C569.597 80.73 580.307 86.85 588.227 99.09C596.147 111.15 600.107 126.18 600.107 144.18C600.107 168.3 591.647 190.26 574.727 210.06C566.447 219.78 555.377 227.7 541.517 233.82C527.657 239.76 512.177 242.73 495.077 242.73C489.857 242.73 483.017 242.28 474.557 241.38C474.017 247.68 473.747 253.53 473.747 258.93C473.747 270.45 476.537 278.64 482.117 283.5C472.037 292.32 461.417 296.73 450.257 296.73ZM485.627 184.95L479.417 216.27C501.197 215.73 518.567 208.62 531.527 194.94C544.667 181.08 551.237 165.96 551.237 149.58C551.237 141.12 549.527 134.37 546.107 129.33C542.867 124.11 538.097 121.5 531.797 121.5C509.477 121.5 494.087 142.65 485.627 184.95ZM712.325 249.75C687.665 249.75 668.585 243.36 655.085 230.58C641.765 217.8 635.105 200.52 635.105 178.74C635.105 149.76 645.005 126.27 664.805 108.27C684.785 90.09 709.805 81 739.865 81C756.605 81 769.295 84.78 777.935 92.34C786.575 99.72 790.895 109.53 790.895 121.77C790.895 138.51 782.705 152.46 766.325 163.62C750.125 174.6 725.015 180.18 690.995 180.36C691.535 191.88 694.145 200.97 698.825 207.63C703.505 214.11 709.355 217.35 716.375 217.35C723.395 217.35 729.425 215.01 734.465 210.33C739.685 205.65 742.295 198 742.295 187.38C768.575 187.38 781.715 193.59 781.715 206.01C781.715 216.63 775.235 226.62 762.275 235.98C749.315 245.16 732.665 249.75 712.325 249.75ZM735.275 112.59C726.095 112.59 717.635 117.18 709.895 126.36C702.335 135.54 696.845 146.34 693.425 158.76C711.425 157.32 724.925 153.27 733.925 146.61C743.105 139.77 747.695 132.57 747.695 125.01C747.695 121.41 746.525 118.44 744.185 116.1C742.025 113.76 739.055 112.59 735.275 112.59ZM826.056 216.27C826.056 209.07 827.856 195.12 831.456 174.42C835.236 153.72 839.106 134.82 843.066 117.72L829.026 96.12C851.526 86.04 867.276 81 876.276 81C885.456 81 890.046 86.76 890.046 98.28C890.046 104.58 887.076 117.72 881.136 137.7L883.836 139.05C896.796 100.35 912.906 81 932.166 81C940.986 81 947.736 83.7 952.416 89.1C957.096 94.5 959.436 100.53 959.436 107.19C959.436 117.09 955.746 125.55 948.366 132.57C940.986 139.59 929.916 143.1 915.156 143.1C892.836 143.1 881.676 166.05 881.676 211.95C881.676 223.11 883.566 231.3 887.346 236.52C876.186 245.34 865.926 249.75 856.566 249.75C836.226 249.75 826.056 238.59 826.056 216.27ZM1066.98 38.34C1066.98 45.18 1063.38 51.12 1056.18 56.16C1048.98 61.02 1040.79 63.45 1031.61 63.45C1022.43 63.45 1015.14 61.65 1009.74 58.05C1004.52 54.45 1001.91 49.59 1001.91 43.47C1001.91 35.19 1005.78 28.71 1013.52 24.03C1021.26 19.35 1029.45 17.01 1038.09 17.01C1046.73 17.01 1053.66 18.81 1058.88 22.41C1064.28 26.01 1066.98 31.32 1066.98 38.34ZM1014.33 249.75C1003.17 249.75 995.067 246.96 990.027 241.38C984.987 235.8 982.467 227.34 982.467 216C982.467 204.48 988.227 173.79 999.747 123.93L984.627 101.25C1007.13 87.75 1024.86 81 1037.82 81C1045.2 81 1050.42 82.62 1053.48 85.86C1056.54 88.92 1058.07 93.96 1058.07 100.98C1058.07 103.68 1054.74 119.52 1048.08 148.5C1041.42 177.48 1038.09 198.18 1038.09 210.6C1038.09 223.02 1040.88 231.66 1046.46 236.52C1036.38 245.34 1025.67 249.75 1014.33 249.75ZM1169.76 249.75C1145.1 249.75 1126.02 243.36 1112.52 230.58C1099.2 217.8 1092.54 200.52 1092.54 178.74C1092.54 149.76 1102.44 126.27 1122.24 108.27C1142.22 90.09 1167.24 81 1197.3 81C1214.04 81 1226.73 84.78 1235.37 92.34C1244.01 99.72 1248.33 109.53 1248.33 121.77C1248.33 138.51 1240.14 152.46 1223.76 163.62C1207.56 174.6 1182.45 180.18 1148.43 180.36C1148.97 191.88 1151.58 200.97 1156.26 207.63C1160.94 214.11 1166.79 217.35 1173.81 217.35C1180.83 217.35 1186.86 215.01 1191.9 210.33C1197.12 205.65 1199.73 198 1199.73 187.38C1226.01 187.38 1239.15 193.59 1239.15 206.01C1239.15 216.63 1232.67 226.62 1219.71 235.98C1206.75 245.16 1190.1 249.75 1169.76 249.75ZM1192.71 112.59C1183.53 112.59 1175.07 117.18 1167.33 126.36C1159.77 135.54 1154.28 146.34 1150.86 158.76C1168.86 157.32 1182.36 153.27 1191.36 146.61C1200.54 139.77 1205.13 132.57 1205.13 125.01C1205.13 121.41 1203.96 118.44 1201.62 116.1C1199.46 113.76 1196.49 112.59 1192.71 112.59ZM1314.55 249.75C1303.93 249.75 1296.1 246.96 1291.06 241.38C1286.02 235.8 1283.5 228.42 1283.5 219.24C1283.5 210.06 1285.3 195.12 1288.9 174.42C1292.68 153.72 1296.55 134.82 1300.51 117.72L1286.47 96.12C1304.29 86.04 1320.76 81 1335.88 81C1351 81 1358.56 87.84 1358.56 101.52C1358.56 110.52 1356.49 119.7 1352.35 129.06L1355.05 130.41C1374.31 97.47 1398.79 81 1428.49 81C1450.27 81 1461.16 91.89 1461.16 113.67C1461.16 123.03 1458.46 138.87 1453.06 161.19C1447.84 183.51 1445.23 200.34 1445.23 211.68C1445.23 223.02 1447.12 231.3 1450.9 236.52C1441.36 245.34 1431.28 249.75 1420.66 249.75C1399.96 249.75 1389.61 238.59 1389.61 216.27C1389.61 207.99 1392.31 193.95 1397.71 174.15C1403.11 154.35 1405.81 141.48 1405.81 135.54C1405.81 127.44 1402.75 123.39 1396.63 123.39C1391.59 123.39 1385.83 125.64 1379.35 130.14C1372.87 134.46 1366.57 140.4 1360.45 147.96C1354.51 155.34 1349.47 164.79 1345.33 176.31C1341.19 187.65 1339.12 199.26 1339.12 211.14C1339.12 222.84 1341.01 231.3 1344.79 236.52C1335.25 245.34 1325.17 249.75 1314.55 249.75ZM1496.2 178.74C1496.2 149.94 1506.1 126.45 1525.9 108.27C1545.7 90.09 1570.63 81 1600.69 81C1616.17 81 1628.41 83.97 1637.41 89.91C1646.41 95.67 1650.91 102.96 1650.91 111.78C1650.91 120.6 1647.85 127.35 1641.73 132.03C1635.79 136.71 1629.22 139.05 1622.02 139.05C1615 139.05 1608.52 137.16 1602.58 133.38C1596.82 129.6 1592.32 124.11 1589.08 116.91C1577.74 121.59 1568.74 129.87 1562.08 141.75C1555.6 153.63 1552.36 165.51 1552.36 177.39C1552.36 189.27 1554.7 198.9 1559.38 206.28C1564.06 213.66 1570.18 217.35 1577.74 217.35C1585.3 217.35 1591.42 214.83 1596.1 209.79C1600.96 204.75 1603.39 197.28 1603.39 187.38C1629.67 187.38 1642.81 193.59 1642.81 206.01C1642.81 216.63 1636.15 226.62 1622.83 235.98C1609.51 245.16 1591.96 249.75 1570.18 249.75C1548.4 249.75 1530.58 243.27 1516.72 230.31C1503.04 217.17 1496.2 199.98 1496.2 178.74ZM1756.4 249.75C1731.74 249.75 1712.66 243.36 1699.16 230.58C1685.84 217.8 1679.18 200.52 1679.18 178.74C1679.18 149.76 1689.08 126.27 1708.88 108.27C1728.86 90.09 1753.88 81 1783.94 81C1800.68 81 1813.37 84.78 1822.01 92.34C1830.65 99.72 1834.97 109.53 1834.97 121.77C1834.97 138.51 1826.78 152.46 1810.4 163.62C1794.2 174.6 1769.09 180.18 1735.07 180.36C1735.61 191.88 1738.22 200.97 1742.9 207.63C1747.58 214.11 1753.43 217.35 1760.45 217.35C1767.47 217.35 1773.5 215.01 1778.54 210.33C1783.76 205.65 1786.37 198 1786.37 187.38C1812.65 187.38 1825.79 193.59 1825.79 206.01C1825.79 216.63 1819.31 226.62 1806.35 235.98C1793.39 245.16 1776.74 249.75 1756.4 249.75ZM1779.35 112.59C1770.17 112.59 1761.71 117.18 1753.97 126.36C1746.41 135.54 1740.92 146.34 1737.5 158.76C1755.5 157.32 1769 153.27 1778 146.61C1787.18 139.77 1791.77 132.57 1791.77 125.01C1791.77 121.41 1790.6 118.44 1788.26 116.1C1786.1 113.76 1783.13 112.59 1779.35 112.59Z" fill="#E1B7D8" fill-opacity="0.07"/>
<g filter="url(#filter0_d_23_6)">
<path d="M637.427 203.6C633.494 203.6 630.594 202.367 628.727 199.9C626.861 197.367 625.927 193.633 625.927 188.7C625.927 183.7 628.027 169.6 632.227 146.4L626.927 135.7C634.461 130.833 641.327 128.4 647.527 128.4C651.461 128.4 653.894 130.267 654.827 134C662.361 133.8 671.761 132.1 683.027 128.9C683.561 131.1 683.827 133.267 683.827 135.4C683.827 140.8 682.027 144.867 678.427 147.6C674.894 150.333 670.327 151.7 664.727 151.7C660.927 151.7 657.194 150.9 653.527 149.3C652.994 152.3 652.061 157.2 650.727 164C653.194 164.467 655.294 164.7 657.027 164.7C659.761 164.167 662.761 163.4 666.027 162.4C666.361 163.533 666.527 165.4 666.527 168C666.527 170.533 665.494 172.567 663.427 174.1C661.361 175.633 659.027 176.4 656.427 176.4C653.894 176.4 651.294 176.1 648.627 175.5C647.894 179.7 647.527 183.667 647.527 187.4H663.727C668.794 186.667 673.894 185.367 679.027 183.5C679.427 184.7 679.627 186.333 679.627 188.4C679.627 192.333 678.461 195.833 676.127 198.9C673.861 201.967 670.694 203.5 666.627 203.5C664.494 203.5 661.361 203.067 657.227 202.2C653.161 201.4 650.127 200.9 648.127 200.7C644.927 202.633 641.361 203.6 637.427 203.6ZM715.541 192.1L710.741 183.3C706.341 187.367 704.141 191.133 704.141 194.6C704.141 196.267 704.408 197.8 704.941 199.2C700.208 202.067 695.741 203.5 691.541 203.5C688.741 203.5 686.508 202.633 684.841 200.9C683.175 199.1 682.341 196.767 682.341 193.9C682.341 189.633 684.208 185.667 687.941 182C691.741 178.267 696.175 175.167 701.241 172.7L704.141 171.3L698.141 160.3C695.541 155.5 691.675 152.233 686.541 150.5C690.675 144.167 696.075 141 702.741 141C705.741 141 708.275 141.833 710.341 143.5C712.408 145.1 714.641 148.1 717.041 152.5L721.441 160.6C725.441 156.8 727.441 153.233 727.441 149.9C727.441 148.233 727.175 146.7 726.641 145.3C731.375 142.433 735.841 141 740.041 141C742.841 141 745.075 141.9 746.741 143.7C748.408 145.433 749.241 147.733 749.241 150.6C749.241 154.867 747.341 158.867 743.541 162.6C739.808 166.267 735.408 169.333 730.341 171.8L728.141 172.9L734.441 184.3C737.041 189.233 740.908 192.5 746.041 194.1C741.841 200.367 736.408 203.5 729.741 203.5C726.675 203.5 724.141 202.7 722.141 201.1C720.141 199.5 717.941 196.5 715.541 192.1ZM767.387 220.9C763.253 220.9 760.353 219.867 758.687 217.8C757.087 215.8 756.287 212.867 756.287 209C756.287 205.2 757.087 197.5 758.687 185.9C760.353 174.3 761.953 164.4 763.487 156.2L757.887 148.2C762.02 145.8 765.587 144 768.587 142.8C771.587 141.533 774.553 140.9 777.487 140.9C782.287 140.9 784.687 144.067 784.687 150.4C784.687 151.267 784.553 153.033 784.287 155.7L785.287 156.2C787.22 151.4 790.02 147.667 793.687 145C797.353 142.267 801.653 140.9 806.587 140.9C811.587 140.9 815.553 143.167 818.487 147.7C821.42 152.167 822.887 157.733 822.887 164.4C822.887 173.333 819.753 181.467 813.487 188.8C810.42 192.4 806.32 195.333 801.187 197.6C796.053 199.8 790.32 200.9 783.987 200.9C782.053 200.9 779.52 200.733 776.387 200.4C776.187 202.733 776.087 204.9 776.087 206.9C776.087 211.167 777.12 214.2 779.187 216C775.453 219.267 771.52 220.9 767.387 220.9ZM780.487 179.5L778.187 191.1C786.253 190.9 792.687 188.267 797.487 183.2C802.353 178.067 804.787 172.467 804.787 166.4C804.787 163.267 804.153 160.767 802.887 158.9C801.687 156.967 799.92 156 797.587 156C789.32 156 783.62 163.833 780.487 179.5ZM860.449 203.5C851.316 203.5 844.249 201.133 839.249 196.4C834.316 191.667 831.849 185.267 831.849 177.2C831.849 166.467 835.516 157.767 842.849 151.1C850.249 144.367 859.516 141 870.649 141C876.849 141 881.549 142.4 884.749 145.2C887.949 147.933 889.549 151.567 889.549 156.1C889.549 162.3 886.516 167.467 880.449 171.6C874.449 175.667 865.149 177.733 852.549 177.8C852.749 182.067 853.716 185.433 855.449 187.9C857.182 190.3 859.349 191.5 861.949 191.5C864.549 191.5 866.782 190.633 868.649 188.9C870.582 187.167 871.549 184.333 871.549 180.4C881.282 180.4 886.149 182.7 886.149 187.3C886.149 191.233 883.749 194.933 878.949 198.4C874.149 201.8 867.982 203.5 860.449 203.5ZM868.949 152.7C865.549 152.7 862.416 154.4 859.549 157.8C856.749 161.2 854.716 165.2 853.449 169.8C860.116 169.267 865.116 167.767 868.449 165.3C871.849 162.767 873.549 160.1 873.549 157.3C873.549 155.967 873.116 154.867 872.249 154C871.449 153.133 870.349 152.7 868.949 152.7ZM898.572 191.1C898.572 188.433 899.238 183.267 900.572 175.6C901.972 167.933 903.405 160.933 904.872 154.6L899.672 146.6C908.005 142.867 913.838 141 917.172 141C920.572 141 922.272 143.133 922.272 147.4C922.272 149.733 921.172 154.6 918.972 162L919.972 162.5C924.772 148.167 930.738 141 937.872 141C941.138 141 943.638 142 945.372 144C947.105 146 947.972 148.233 947.972 150.7C947.972 154.367 946.605 157.5 943.872 160.1C941.138 162.7 937.038 164 931.572 164C923.305 164 919.172 172.5 919.172 189.5C919.172 193.633 919.872 196.667 921.272 198.6C917.138 201.867 913.338 203.5 909.872 203.5C902.338 203.5 898.572 199.367 898.572 191.1ZM983.801 125.2C983.801 127.733 982.468 129.933 979.801 131.8C977.135 133.6 974.101 134.5 970.701 134.5C967.301 134.5 964.601 133.833 962.601 132.5C960.668 131.167 959.701 129.367 959.701 127.1C959.701 124.033 961.135 121.633 964.001 119.9C966.868 118.167 969.901 117.3 973.101 117.3C976.301 117.3 978.868 117.967 980.801 119.3C982.801 120.633 983.801 122.6 983.801 125.2ZM964.301 203.5C960.168 203.5 957.168 202.467 955.301 200.4C953.435 198.333 952.501 195.2 952.501 191C952.501 186.733 954.635 175.367 958.901 156.9L953.301 148.5C961.635 143.5 968.201 141 973.001 141C975.735 141 977.668 141.6 978.801 142.8C979.935 143.933 980.501 145.8 980.501 148.4C980.501 149.4 979.268 155.267 976.801 166C974.335 176.733 973.101 184.4 973.101 189C973.101 193.6 974.135 196.8 976.201 198.6C972.468 201.867 968.501 203.5 964.301 203.5ZM1017.87 203.5C1008.74 203.5 1001.67 201.133 996.671 196.4C991.738 191.667 989.271 185.267 989.271 177.2C989.271 166.467 992.938 157.767 1000.27 151.1C1007.67 144.367 1016.94 141 1028.07 141C1034.27 141 1038.97 142.4 1042.17 145.2C1045.37 147.933 1046.97 151.567 1046.97 156.1C1046.97 162.3 1043.94 167.467 1037.87 171.6C1031.87 175.667 1022.57 177.733 1009.97 177.8C1010.17 182.067 1011.14 185.433 1012.87 187.9C1014.6 190.3 1016.77 191.5 1019.37 191.5C1021.97 191.5 1024.2 190.633 1026.07 188.9C1028 187.167 1028.97 184.333 1028.97 180.4C1038.7 180.4 1043.57 182.7 1043.57 187.3C1043.57 191.233 1041.17 194.933 1036.37 198.4C1031.57 201.8 1025.4 203.5 1017.87 203.5ZM1026.37 152.7C1022.97 152.7 1019.84 154.4 1016.97 157.8C1014.17 161.2 1012.14 165.2 1010.87 169.8C1017.54 169.267 1022.54 167.767 1025.87 165.3C1029.27 162.767 1030.97 160.1 1030.97 157.3C1030.97 155.967 1030.54 154.867 1029.67 154C1028.87 153.133 1027.77 152.7 1026.37 152.7ZM1067.49 203.5C1063.56 203.5 1060.66 202.467 1058.79 200.4C1056.93 198.333 1055.99 195.6 1055.99 192.2C1055.99 188.8 1056.66 183.267 1057.99 175.6C1059.39 167.933 1060.83 160.933 1062.29 154.6L1057.09 146.6C1063.69 142.867 1069.79 141 1075.39 141C1080.99 141 1083.79 143.533 1083.79 148.6C1083.79 151.933 1083.03 155.333 1081.49 158.8L1082.49 159.3C1089.63 147.1 1098.69 141 1109.69 141C1117.76 141 1121.79 145.033 1121.79 153.1C1121.79 156.567 1120.79 162.433 1118.79 170.7C1116.86 178.967 1115.89 185.2 1115.89 189.4C1115.89 193.6 1116.59 196.667 1117.99 198.6C1114.46 201.867 1110.73 203.5 1106.79 203.5C1099.13 203.5 1095.29 199.367 1095.29 191.1C1095.29 188.033 1096.29 182.833 1098.29 175.5C1100.29 168.167 1101.29 163.4 1101.29 161.2C1101.29 158.2 1100.16 156.7 1097.89 156.7C1096.03 156.7 1093.89 157.533 1091.49 159.2C1089.09 160.8 1086.76 163 1084.49 165.8C1082.29 168.533 1080.43 172.033 1078.89 176.3C1077.36 180.5 1076.59 184.8 1076.59 189.2C1076.59 193.533 1077.29 196.667 1078.69 198.6C1075.16 201.867 1071.43 203.5 1067.49 203.5ZM1130.77 177.2C1130.77 166.533 1134.44 157.833 1141.77 151.1C1149.11 144.367 1158.34 141 1169.47 141C1175.21 141 1179.74 142.1 1183.07 144.3C1186.41 146.433 1188.07 149.133 1188.07 152.4C1188.07 155.667 1186.94 158.167 1184.67 159.9C1182.47 161.633 1180.04 162.5 1177.37 162.5C1174.77 162.5 1172.37 161.8 1170.17 160.4C1168.04 159 1166.37 156.967 1165.17 154.3C1160.97 156.033 1157.64 159.1 1155.17 163.5C1152.77 167.9 1151.57 172.3 1151.57 176.7C1151.57 181.1 1152.44 184.667 1154.17 187.4C1155.91 190.133 1158.17 191.5 1160.97 191.5C1163.77 191.5 1166.04 190.567 1167.77 188.7C1169.57 186.833 1170.47 184.067 1170.47 180.4C1180.21 180.4 1185.07 182.7 1185.07 187.3C1185.07 191.233 1182.61 194.933 1177.67 198.4C1172.74 201.8 1166.24 203.5 1158.17 203.5C1150.11 203.5 1143.51 201.1 1138.37 196.3C1133.31 191.433 1130.77 185.067 1130.77 177.2ZM1223.14 203.5C1214.01 203.5 1206.94 201.133 1201.94 196.4C1197.01 191.667 1194.54 185.267 1194.54 177.2C1194.54 166.467 1198.21 157.767 1205.54 151.1C1212.94 144.367 1222.21 141 1233.34 141C1239.54 141 1244.24 142.4 1247.44 145.2C1250.64 147.933 1252.24 151.567 1252.24 156.1C1252.24 162.3 1249.21 167.467 1243.14 171.6C1237.14 175.667 1227.84 177.733 1215.24 177.8C1215.44 182.067 1216.41 185.433 1218.14 187.9C1219.88 190.3 1222.04 191.5 1224.64 191.5C1227.24 191.5 1229.48 190.633 1231.34 188.9C1233.28 187.167 1234.24 184.333 1234.24 180.4C1243.98 180.4 1248.84 182.7 1248.84 187.3C1248.84 191.233 1246.44 194.933 1241.64 198.4C1236.84 201.8 1230.68 203.5 1223.14 203.5ZM1231.64 152.7C1228.24 152.7 1225.11 154.4 1222.24 157.8C1219.44 161.2 1217.41 165.2 1216.14 169.8C1222.81 169.267 1227.81 167.767 1231.14 165.3C1234.54 162.767 1236.24 160.1 1236.24 157.3C1236.24 155.967 1235.81 154.867 1234.94 154C1234.14 153.133 1233.04 152.7 1231.64 152.7Z" fill="#E1B7D8"/>
</g>
<defs>
<filter id="filter0_d_23_6" x="621.927" y="117.3" width="634.317" height="111.6" filterUnits="userSpaceOnUse" color-interpolation-filters="sRGB">
<feFlood flood-opacity="0" result="BackgroundImageFix"/>
<feColorMatrix in="SourceAlpha" type="matrix" values="0 0 0 0 0 0 0 0 0 0 0 0 0 0 0 0 0 0 127 0" result="hardAlpha"/>
<feOffset dy="4"/>
<feGaussianBlur stdDeviation="2"/>
<feComposite in2="hardAlpha" operator="out"/>
<feColorMatrix type="matrix" values="0 0 0 0 0 0 0 0 0 0 0 0 0 0 0 0 0 0 0.25 0"/>
<feBlend mode="normal" in2="BackgroundImageFix" result="effect1_dropShadow_23_6"/>
<feBlend mode="normal" in="SourceGraphic" in2="effect1_dropShadow_23_6" result="shape"/>
</filter>
</defs>
</svg>
