<svg width="1364" height="300" viewBox="0 0 1364 300" fill="none" xmlns="http://www.w3.org/2000/svg">
<path d="M76.9806 183.87C75.9006 190.35 75.3606 195.3 75.3606 198.72C75.3606 216.18 78.0606 229.23 83.4606 237.87C72.6606 245.97 61.4106 250.02 49.7106 250.02C38.0106 250.02 29.6406 246.69 24.6006 240.03C19.5606 233.19 17.0406 223.11 17.0406 209.79C17.0406 196.29 22.7106 158.22 34.0506 95.58L19.7406 66.69C40.0806 53.55 58.6206 46.98 75.3606 46.98C80.0406 46.98 85.1706 47.88 90.7506 49.68C96.3306 51.3 100.291 53.19 102.631 55.35C115.951 50.13 128.281 47.52 139.621 47.52C156.541 47.52 169.861 53.46 179.581 65.34C189.481 77.04 194.431 91.26 194.431 108C194.431 128.16 187.141 146.16 172.561 162C165.541 169.74 156.091 175.95 144.211 180.63C132.331 185.31 120.181 187.65 107.761 187.65C95.5206 187.65 85.2606 186.39 76.9806 183.87ZM82.1106 153.09C84.6306 153.63 87.2406 153.9 89.9406 153.9C101.461 153.9 111.721 149.85 120.721 141.75C129.721 133.65 134.221 123.66 134.221 111.78C134.221 103.5 131.791 96.48 126.931 90.72C122.251 84.96 115.591 82.08 106.951 82.08C103.351 82.08 99.2106 82.8 94.5306 84.24C90.9306 108.9 86.7906 131.85 82.1106 153.09ZM220.026 216.27C220.026 209.07 221.826 195.12 225.426 174.42C229.206 153.72 233.076 134.82 237.036 117.72L222.996 96.12C245.496 86.04 261.246 81 270.246 81C279.426 81 284.016 86.76 284.016 98.28C284.016 104.58 281.046 117.72 275.106 137.7L277.806 139.05C290.766 100.35 306.876 81 326.136 81C334.956 81 341.706 83.7 346.386 89.1C351.066 94.5 353.406 100.53 353.406 107.19C353.406 117.09 349.716 125.55 342.336 132.57C334.956 139.59 323.886 143.1 309.126 143.1C286.806 143.1 275.646 166.05 275.646 211.95C275.646 223.11 277.536 231.3 281.316 236.52C270.156 245.34 259.896 249.75 250.536 249.75C230.196 249.75 220.026 238.59 220.026 216.27ZM504.146 101.52C514.226 101.52 522.866 105.57 530.066 113.67C537.446 121.77 541.136 133.56 541.136 149.04C541.136 164.34 538.436 178.56 533.036 191.7C527.636 204.66 520.526 215.28 511.706 223.56C502.886 231.84 492.896 238.32 481.736 243C470.576 247.5 459.146 249.75 447.446 249.75C423.866 249.75 405.236 243.27 391.556 230.31C377.876 217.35 371.036 200.16 371.036 178.74C371.036 149.76 380.306 126.27 398.846 108.27C417.566 90.09 441.326 81 470.126 81C476.606 81 483.086 81.72 489.566 83.16C491.546 89.1 492.626 95.85 492.806 103.41C496.586 102.15 500.366 101.52 504.146 101.52ZM470.936 139.05C470.936 134.01 472.106 128.34 474.446 122.04C476.966 115.74 480.926 110.7 486.326 106.92C462.566 111.96 446.186 121.59 437.186 135.81C429.446 148.05 425.576 160.65 425.576 173.61C425.576 186.57 428.186 197.01 433.406 204.93C438.806 212.67 445.646 216.54 453.926 216.54C472.286 216.54 485.246 204.57 492.806 180.63C478.226 171.63 470.936 157.77 470.936 139.05ZM663.944 38.34C663.944 45.18 660.344 51.12 653.144 56.16C645.944 61.02 637.754 63.45 628.574 63.45C619.394 63.45 612.104 61.65 606.704 58.05C601.484 54.45 598.874 49.59 598.874 43.47C598.874 35.19 602.744 28.71 610.484 24.03C618.224 19.35 626.414 17.01 635.054 17.01C643.694 17.01 650.624 18.81 655.844 22.41C661.244 26.01 663.944 31.32 663.944 38.34ZM655.034 100.98C655.034 116.1 647.654 160.11 632.894 233.01C629.114 251.91 622.454 267.75 612.914 280.53C603.554 293.31 591.404 299.7 576.464 299.7C565.844 299.7 557.834 297.18 552.434 292.14C547.034 287.28 544.334 280.89 544.334 272.97C544.334 265.23 547.034 258.93 552.434 254.07C557.834 249.39 564.494 247.05 572.414 247.05C580.514 247.05 588.884 250.02 597.524 255.96L600.224 252.18C592.484 244.26 587.444 237.87 585.104 233.01C582.764 228.15 581.594 222.48 581.594 216C581.594 209.34 586.634 178.65 596.714 123.93L581.594 101.25C604.094 87.75 621.824 81 634.784 81C642.164 81 647.384 82.62 650.444 85.86C653.504 88.92 655.034 93.96 655.034 100.98ZM768.596 249.75C743.936 249.75 724.856 243.36 711.356 230.58C698.036 217.8 691.376 200.52 691.376 178.74C691.376 149.76 701.276 126.27 721.076 108.27C741.056 90.09 766.076 81 796.136 81C812.876 81 825.566 84.78 834.206 92.34C842.846 99.72 847.166 109.53 847.166 121.77C847.166 138.51 838.976 152.46 822.596 163.62C806.396 174.6 781.286 180.18 747.266 180.36C747.806 191.88 750.416 200.97 755.096 207.63C759.776 214.11 765.626 217.35 772.646 217.35C779.666 217.35 785.696 215.01 790.736 210.33C795.956 205.65 798.566 198 798.566 187.38C824.846 187.38 837.986 193.59 837.986 206.01C837.986 216.63 831.506 226.62 818.546 235.98C805.586 245.16 788.936 249.75 768.596 249.75ZM791.546 112.59C782.366 112.59 773.906 117.18 766.166 126.36C758.606 135.54 753.116 146.34 749.696 158.76C767.696 157.32 781.196 153.27 790.196 146.61C799.376 139.77 803.966 132.57 803.966 125.01C803.966 121.41 802.796 118.44 800.456 116.1C798.296 113.76 795.326 112.59 791.546 112.59ZM879.627 178.74C879.627 149.94 889.527 126.45 909.327 108.27C929.127 90.09 954.057 81 984.117 81C999.597 81 1011.84 83.97 1020.84 89.91C1029.84 95.67 1034.34 102.96 1034.34 111.78C1034.34 120.6 1031.28 127.35 1025.16 132.03C1019.22 136.71 1012.65 139.05 1005.45 139.05C998.427 139.05 991.947 137.16 986.007 133.38C980.247 129.6 975.747 124.11 972.507 116.91C961.167 121.59 952.167 129.87 945.507 141.75C939.027 153.63 935.787 165.51 935.787 177.39C935.787 189.27 938.127 198.9 942.807 206.28C947.487 213.66 953.607 217.35 961.167 217.35C968.727 217.35 974.847 214.83 979.527 209.79C984.387 204.75 986.817 197.28 986.817 187.38C1013.1 187.38 1026.24 193.59 1026.24 206.01C1026.24 216.63 1019.58 226.62 1006.26 235.98C992.937 245.16 975.387 249.75 953.607 249.75C931.827 249.75 914.007 243.27 900.147 230.31C886.467 217.17 879.627 199.98 879.627 178.74ZM1068.55 145.53C1067.29 140.49 1066.66 135.81 1066.66 131.49C1066.66 122.67 1069.27 116.01 1074.49 111.51C1079.71 107.01 1086.46 104.76 1094.74 104.76C1094.74 95.4 1092.31 85.23 1087.45 74.25C1096.27 67.77 1104.28 62.91 1111.48 59.67C1118.86 56.25 1126.6 54.54 1134.7 54.54C1142.8 54.54 1148.38 56.07 1151.44 59.13C1154.68 62.01 1156.3 66.51 1156.3 72.63C1156.3 78.75 1155.04 88.29 1152.52 101.25C1159.72 100.17 1167.01 98.64 1174.39 96.66C1175.65 100.44 1176.28 105.3 1176.28 111.24C1176.28 117.18 1173.94 122.76 1169.26 127.98C1164.76 133.02 1158.1 135.54 1149.28 135.54H1145.23C1138.75 164.88 1135.51 187.47 1135.51 203.31C1135.51 219.15 1138.3 230.22 1143.88 236.52C1133.8 245.34 1123.09 249.75 1111.75 249.75C1100.41 249.75 1092.22 246.42 1087.18 239.76C1082.32 232.92 1079.89 222.39 1079.89 208.17C1079.89 199.53 1083.04 176.85 1089.34 140.13C1082.14 141.39 1075.21 143.19 1068.55 145.53ZM1290.64 116.91C1283.98 118.89 1278.67 121.77 1274.71 125.55C1270.75 129.15 1267.24 134.37 1264.18 141.21C1294.6 145.71 1316.02 152.19 1328.44 160.65C1340.86 169.11 1347.07 181.17 1347.07 196.83C1347.07 206.73 1344.28 215.37 1338.7 222.75C1333.12 229.95 1326.1 235.44 1317.64 239.22C1301.08 246.24 1284.79 249.75 1268.77 249.75C1223.23 249.75 1200.46 239.94 1200.46 220.32C1200.46 210.42 1204.87 200.52 1213.69 190.62C1218.19 196.92 1224.94 202.32 1233.94 206.82C1243.12 211.32 1252.03 213.57 1260.67 213.57C1275.61 213.57 1284.61 207 1287.67 193.86C1260.31 190.62 1240.51 184.5 1228.27 175.5C1216.03 166.5 1209.91 153.81 1209.91 137.43C1209.91 124.47 1214.14 113.58 1222.6 104.76C1231.24 95.94 1241.86 89.82 1254.46 86.4C1267.24 82.8 1281.55 81 1297.39 81C1313.41 81 1326.55 84.06 1336.81 90.18C1347.25 96.12 1352.47 103.41 1352.47 112.05C1352.47 120.69 1349.41 127.35 1343.29 132.03C1337.35 136.71 1330.78 139.05 1323.58 139.05C1316.56 139.05 1310.08 137.16 1304.14 133.38C1298.38 129.6 1293.88 124.11 1290.64 116.91Z" fill="#E1B7D8" fill-opacity="0.07"/>
<g filter="url(#filter0_d_20_13)">
<path d="M471.419 179.1C471.019 181.5 470.819 183.333 470.819 184.6C470.819 191.067 471.819 195.9 473.819 199.1C469.819 202.1 465.652 203.6 461.319 203.6C456.985 203.6 453.885 202.367 452.019 199.9C450.152 197.367 449.219 193.633 449.219 188.7C449.219 183.7 451.319 169.6 455.519 146.4L450.219 135.7C457.752 130.833 464.619 128.4 470.819 128.4C472.552 128.4 474.452 128.733 476.519 129.4C478.585 130 480.052 130.7 480.919 131.5C485.852 129.567 490.419 128.6 494.619 128.6C500.885 128.6 505.819 130.8 509.419 135.2C513.085 139.533 514.919 144.8 514.919 151C514.919 158.467 512.219 165.133 506.819 171C504.219 173.867 500.719 176.167 496.319 177.9C491.919 179.633 487.419 180.5 482.819 180.5C478.285 180.5 474.485 180.033 471.419 179.1ZM473.319 167.7C474.252 167.9 475.219 168 476.219 168C480.485 168 484.285 166.5 487.619 163.5C490.952 160.5 492.619 156.8 492.619 152.4C492.619 149.333 491.719 146.733 489.919 144.6C488.185 142.467 485.719 141.4 482.519 141.4C481.185 141.4 479.652 141.667 477.919 142.2C476.585 151.333 475.052 159.833 473.319 167.7ZM520.398 191.1C520.398 188.433 521.065 183.267 522.398 175.6C523.798 167.933 525.232 160.933 526.698 154.6L521.498 146.6C529.832 142.867 535.665 141 538.998 141C542.398 141 544.098 143.133 544.098 147.4C544.098 149.733 542.998 154.6 540.798 162L541.798 162.5C546.598 148.167 552.565 141 559.698 141C562.965 141 565.465 142 567.198 144C568.932 146 569.798 148.233 569.798 150.7C569.798 154.367 568.432 157.5 565.698 160.1C562.965 162.7 558.865 164 553.398 164C545.132 164 540.998 172.5 540.998 189.5C540.998 193.633 541.698 196.667 543.098 198.6C538.965 201.867 535.165 203.5 531.698 203.5C524.165 203.5 520.398 199.367 520.398 191.1ZM621.628 148.6C625.361 148.6 628.561 150.1 631.228 153.1C633.961 156.1 635.328 160.467 635.328 166.2C635.328 171.867 634.328 177.133 632.328 182C630.328 186.8 627.695 190.733 624.428 193.8C621.161 196.867 617.461 199.267 613.328 201C609.195 202.667 604.961 203.5 600.628 203.5C591.895 203.5 584.995 201.1 579.928 196.3C574.861 191.5 572.328 185.133 572.328 177.2C572.328 166.467 575.761 157.767 582.628 151.1C589.561 144.367 598.361 141 609.028 141C611.428 141 613.828 141.267 616.228 141.8C616.961 144 617.361 146.5 617.428 149.3C618.828 148.833 620.228 148.6 621.628 148.6ZM609.328 162.5C609.328 160.633 609.761 158.533 610.628 156.2C611.561 153.867 613.028 152 615.028 150.6C606.228 152.467 600.161 156.033 596.828 161.3C593.961 165.833 592.528 170.5 592.528 175.3C592.528 180.1 593.495 183.967 595.428 186.9C597.428 189.767 599.961 191.2 603.028 191.2C609.828 191.2 614.628 186.767 617.428 177.9C612.028 174.567 609.328 169.433 609.328 162.5ZM676.813 125.2C676.813 127.733 675.479 129.933 672.813 131.8C670.146 133.6 667.113 134.5 663.713 134.5C660.313 134.5 657.613 133.833 655.613 132.5C653.679 131.167 652.713 129.367 652.713 127.1C652.713 124.033 654.146 121.633 657.013 119.9C659.879 118.167 662.913 117.3 666.113 117.3C669.313 117.3 671.879 117.967 673.813 119.3C675.813 120.633 676.813 122.6 676.813 125.2ZM673.513 148.4C673.513 154 670.779 170.3 665.313 197.3C663.913 204.3 661.446 210.167 657.913 214.9C654.446 219.633 649.946 222 644.413 222C640.479 222 637.512 221.067 635.512 219.2C633.512 217.4 632.512 215.033 632.512 212.1C632.512 209.233 633.512 206.9 635.512 205.1C637.512 203.367 639.979 202.5 642.913 202.5C645.913 202.5 649.013 203.6 652.213 205.8L653.213 204.4C650.346 201.467 648.479 199.1 647.613 197.3C646.746 195.5 646.313 193.4 646.313 191C646.313 188.533 648.179 177.167 651.913 156.9L646.313 148.5C654.646 143.5 661.213 141 666.013 141C668.746 141 670.679 141.6 671.813 142.8C672.946 143.933 673.513 145.8 673.513 148.4ZM711.573 203.5C702.439 203.5 695.373 201.133 690.373 196.4C685.439 191.667 682.973 185.267 682.973 177.2C682.973 166.467 686.639 157.767 693.973 151.1C701.373 144.367 710.639 141 721.773 141C727.973 141 732.673 142.4 735.873 145.2C739.073 147.933 740.673 151.567 740.673 156.1C740.673 162.3 737.639 167.467 731.573 171.6C725.573 175.667 716.273 177.733 703.673 177.8C703.873 182.067 704.839 185.433 706.573 187.9C708.306 190.3 710.473 191.5 713.073 191.5C715.673 191.5 717.906 190.633 719.773 188.9C721.706 187.167 722.673 184.333 722.673 180.4C732.406 180.4 737.273 182.7 737.273 187.3C737.273 191.233 734.873 194.933 730.073 198.4C725.273 201.8 719.106 203.5 711.573 203.5ZM720.073 152.7C716.673 152.7 713.539 154.4 710.673 157.8C707.873 161.2 705.839 165.2 704.573 169.8C711.239 169.267 716.239 167.767 719.573 165.3C722.973 162.767 724.673 160.1 724.673 157.3C724.673 155.967 724.239 154.867 723.373 154C722.573 153.133 721.473 152.7 720.073 152.7ZM748.695 177.2C748.695 166.533 752.362 157.833 759.695 151.1C767.029 144.367 776.262 141 787.395 141C793.129 141 797.662 142.1 800.995 144.3C804.329 146.433 805.995 149.133 805.995 152.4C805.995 155.667 804.862 158.167 802.595 159.9C800.395 161.633 797.962 162.5 795.295 162.5C792.695 162.5 790.295 161.8 788.095 160.4C785.962 159 784.295 156.967 783.095 154.3C778.895 156.033 775.562 159.1 773.095 163.5C770.695 167.9 769.495 172.3 769.495 176.7C769.495 181.1 770.362 184.667 772.095 187.4C773.829 190.133 776.095 191.5 778.895 191.5C781.695 191.5 783.962 190.567 785.695 188.7C787.495 186.833 788.395 184.067 788.395 180.4C798.129 180.4 802.995 182.7 802.995 187.3C802.995 191.233 800.529 194.933 795.595 198.4C790.662 201.8 784.162 203.5 776.095 203.5C768.029 203.5 761.429 201.1 756.295 196.3C751.229 191.433 748.695 185.067 748.695 177.2ZM814.665 164.9C814.198 163.033 813.965 161.3 813.965 159.7C813.965 156.433 814.932 153.967 816.865 152.3C818.798 150.633 821.298 149.8 824.365 149.8C824.365 146.333 823.465 142.567 821.665 138.5C824.932 136.1 827.898 134.3 830.565 133.1C833.298 131.833 836.165 131.2 839.165 131.2C842.165 131.2 844.232 131.767 845.365 132.9C846.565 133.967 847.165 135.633 847.165 137.9C847.165 140.167 846.698 143.7 845.765 148.5C848.432 148.1 851.132 147.533 853.865 146.8C854.332 148.2 854.565 150 854.565 152.2C854.565 154.4 853.698 156.467 851.965 158.4C850.298 160.267 847.832 161.2 844.565 161.2H843.065C840.665 172.067 839.465 180.433 839.465 186.3C839.465 192.167 840.498 196.267 842.565 198.6C838.832 201.867 834.865 203.5 830.665 203.5C826.465 203.5 823.432 202.267 821.565 199.8C819.765 197.267 818.865 193.367 818.865 188.1C818.865 184.9 820.032 176.5 822.365 162.9C819.698 163.367 817.132 164.033 814.665 164.9ZM892.923 154.3C890.457 155.033 888.49 156.1 887.023 157.5C885.557 158.833 884.257 160.767 883.123 163.3C894.39 164.967 902.323 167.367 906.923 170.5C911.523 173.633 913.823 178.1 913.823 183.9C913.823 187.567 912.79 190.767 910.723 193.5C908.657 196.167 906.057 198.2 902.923 199.6C896.79 202.2 890.757 203.5 884.823 203.5C867.957 203.5 859.523 199.867 859.523 192.6C859.523 188.933 861.157 185.267 864.423 181.6C866.09 183.933 868.59 185.933 871.923 187.6C875.323 189.267 878.623 190.1 881.823 190.1C887.357 190.1 890.69 187.667 891.823 182.8C881.69 181.6 874.357 179.333 869.823 176C865.29 172.667 863.023 167.967 863.023 161.9C863.023 157.1 864.59 153.067 867.723 149.8C870.923 146.533 874.857 144.267 879.523 143C884.257 141.667 889.557 141 895.423 141C901.357 141 906.223 142.133 910.023 144.4C913.89 146.6 915.823 149.3 915.823 152.5C915.823 155.7 914.69 158.167 912.423 159.9C910.223 161.633 907.79 162.5 905.123 162.5C902.523 162.5 900.123 161.8 897.923 160.4C895.79 159 894.123 156.967 892.923 154.3Z" fill="#E1B7D8"/>
</g>
<defs>
<filter id="filter0_d_20_13" x="445.219" y="117.3" width="474.605" height="112.7" filterUnits="userSpaceOnUse" color-interpolation-filters="sRGB">
<feFlood flood-opacity="0" result="BackgroundImageFix"/>
<feColorMatrix in="SourceAlpha" type="matrix" values="0 0 0 0 0 0 0 0 0 0 0 0 0 0 0 0 0 0 127 0" result="hardAlpha"/>
<feOffset dy="4"/>
<feGaussianBlur stdDeviation="2"/>
<feComposite in2="hardAlpha" operator="out"/>
<feColorMatrix type="matrix" values="0 0 0 0 0 0 0 0 0 0 0 0 0 0 0 0 0 0 0.25 0"/>
<feBlend mode="normal" in2="BackgroundImageFix" result="effect1_dropShadow_20_13"/>
<feBlend mode="normal" in="SourceGraphic" in2="effect1_dropShadow_20_13" result="shape"/>
</filter>
</defs>
</svg>
