<svg width="800" height="500" viewBox="0 0 800 500" fill="none" xmlns="http://www.w3.org/2000/svg">
<g clip-path="url(#clip0_22_147)">
<path d="M173.338 443.827C196.315 443.827 214.942 423.566 214.942 398.572C214.942 373.578 196.315 353.316 173.338 353.316C150.36 353.316 131.733 373.578 131.733 398.572C131.733 423.566 150.36 443.827 173.338 443.827Z" fill="#F2F2F2"/>
<path d="M180.103 437.204C203.08 437.204 221.707 416.943 221.707 391.949C221.707 366.955 203.08 346.693 180.103 346.693C157.125 346.693 138.498 366.955 138.498 391.949C138.498 416.943 157.125 437.204 180.103 437.204Z" fill="#E1B7D8"/>
<path d="M728.369 341.875H213.609V343.402H728.369V341.875Z" fill="#3F3D56"/>
<path d="M480.204 14.2483H297.496V10.1521H214.649V14.2483H31.1877C29.5647 14.2483 27.9576 14.596 26.4581 15.2716C24.9587 15.9472 23.5963 16.9375 22.4487 18.1858C21.301 19.4341 20.3907 20.9161 19.7696 22.5471C19.1485 24.1782 18.8288 25.9263 18.8288 27.6917V299.83C18.8288 303.395 20.1309 306.814 22.4487 309.336C24.7664 311.857 27.9099 313.273 31.1877 313.273H480.204C483.482 313.273 486.625 311.857 488.943 309.336C491.261 306.814 492.563 303.395 492.563 299.83V27.6917C492.563 25.9263 492.243 24.1782 491.622 22.5471C491.001 20.9161 490.09 19.4341 488.943 18.1858C487.795 16.9375 486.433 15.9472 484.933 15.2716C483.434 14.596 481.827 14.2483 480.204 14.2483Z" fill="#3F3D56"/>
<path d="M475.993 38.0063H35.3982V308.358H475.993V38.0063Z" fill="#E1B7D8"/>
<path d="M255.319 30.6332C257.815 30.6332 259.838 28.4325 259.838 25.7177C259.838 23.003 257.815 20.8022 255.319 20.8022C252.823 20.8022 250.8 23.003 250.8 25.7177C250.8 28.4325 252.823 30.6332 255.319 30.6332Z" fill="#E1B7D8"/>
<path opacity="0.1" d="M349.991 308.358H35.3984V38.0068L349.991 308.358Z" fill="black"/>
<path d="M104.338 288.127C127.728 288.127 146.69 267.502 146.69 242.059C146.69 216.616 127.728 195.991 104.338 195.991C80.9481 195.991 61.9868 216.616 61.9868 242.059C61.9868 267.502 80.9481 288.127 104.338 288.127Z" fill="#F2F2F2"/>
<path d="M399.278 183.809H358.122V193.164H399.278V183.809Z" fill="#3F3D56"/>
<path d="M449.035 110.978H308.366V114.987H449.035V110.978Z" fill="#3F3D56"/>
<path d="M449.035 123.673H308.366V127.682H449.035V123.673Z" fill="#3F3D56"/>
<path d="M449.035 136.368H308.366V140.377H449.035V136.368Z" fill="#3F3D56"/>
<path d="M449.035 149.063H308.366V153.073H449.035V149.063Z" fill="#3F3D56"/>
<path d="M449.035 161.759H308.366V165.768H449.035V161.759Z" fill="#3F3D56"/>
<path d="M449.035 43.4912H431.835V62.2002H449.035V43.4912Z" fill="#F2F2F2"/>
<path d="M457.02 70.8866H436.135V48.1685H457.02V70.8866ZM437.043 69.8989H456.112V49.1562H437.043V69.8989Z" fill="#3F3D56"/>
<path d="M504.934 303.442H461.934V300.072C461.934 299.984 461.919 299.897 461.888 299.816C461.857 299.735 461.812 299.662 461.755 299.599C461.697 299.537 461.63 299.488 461.555 299.455C461.481 299.421 461.401 299.404 461.32 299.404H446.578C446.497 299.404 446.417 299.421 446.342 299.455C446.268 299.488 446.2 299.537 446.143 299.599C446.086 299.662 446.041 299.735 446.01 299.816C445.979 299.897 445.963 299.984 445.963 300.072V303.442H436.749V300.072C436.749 299.984 436.733 299.897 436.702 299.816C436.672 299.735 436.626 299.662 436.569 299.599C436.512 299.537 436.444 299.488 436.37 299.455C436.295 299.421 436.216 299.404 436.135 299.404H421.392C421.312 299.404 421.232 299.421 421.157 299.455C421.083 299.488 421.015 299.537 420.958 299.599C420.901 299.662 420.856 299.735 420.825 299.816C420.794 299.897 420.778 299.984 420.778 300.072V303.442H411.564V300.072C411.564 299.984 411.548 299.897 411.517 299.816C411.486 299.735 411.441 299.662 411.384 299.599C411.327 299.537 411.259 299.488 411.185 299.455C411.11 299.421 411.03 299.404 410.95 299.404H396.207C396.126 299.404 396.047 299.421 395.972 299.455C395.897 299.488 395.83 299.537 395.773 299.599C395.716 299.662 395.67 299.735 395.64 299.816C395.609 299.897 395.593 299.984 395.593 300.072V303.442H386.379V300.072C386.379 299.984 386.363 299.897 386.332 299.816C386.301 299.735 386.256 299.662 386.199 299.599C386.142 299.537 386.074 299.488 385.999 299.455C385.925 299.421 385.845 299.404 385.764 299.404H371.022C370.941 299.404 370.861 299.421 370.787 299.455C370.712 299.488 370.644 299.537 370.587 299.599C370.53 299.662 370.485 299.735 370.454 299.816C370.423 299.897 370.408 299.984 370.408 300.072V303.442H361.193V300.072C361.193 299.984 361.178 299.897 361.147 299.816C361.116 299.735 361.071 299.662 361.013 299.599C360.956 299.537 360.889 299.488 360.814 299.455C360.74 299.421 360.66 299.404 360.579 299.404H345.837C345.756 299.404 345.676 299.421 345.601 299.455C345.527 299.488 345.459 299.537 345.402 299.599C345.345 299.662 345.3 299.735 345.269 299.816C345.238 299.897 345.222 299.984 345.222 300.072V303.442H336.008V300.072C336.008 299.984 335.992 299.897 335.961 299.816C335.931 299.735 335.885 299.662 335.828 299.599C335.771 299.537 335.703 299.488 335.629 299.455C335.554 299.421 335.475 299.404 335.394 299.404H320.651C320.571 299.404 320.491 299.421 320.416 299.455C320.342 299.488 320.274 299.537 320.217 299.599C320.16 299.662 320.115 299.735 320.084 299.816C320.053 299.897 320.037 299.984 320.037 300.072V303.442H310.823V300.072C310.823 299.984 310.807 299.897 310.776 299.816C310.745 299.735 310.7 299.662 310.643 299.599C310.586 299.537 310.518 299.488 310.444 299.455C310.369 299.421 310.289 299.404 310.209 299.404H194.725C194.644 299.404 194.564 299.421 194.49 299.455C194.415 299.488 194.348 299.537 194.291 299.599C194.234 299.662 194.188 299.735 194.158 299.816C194.127 299.897 194.111 299.984 194.111 300.072V303.442H184.897V300.072C184.897 299.984 184.881 299.897 184.85 299.816C184.819 299.735 184.774 299.662 184.717 299.599C184.66 299.537 184.592 299.488 184.517 299.455C184.443 299.421 184.363 299.404 184.282 299.404H169.54C169.459 299.404 169.379 299.421 169.305 299.455C169.23 299.488 169.162 299.537 169.105 299.599C169.048 299.662 169.003 299.735 168.972 299.816C168.941 299.897 168.925 299.984 168.925 300.072V303.442H159.711V300.072C159.711 299.984 159.695 299.897 159.665 299.816C159.634 299.735 159.588 299.662 159.531 299.599C159.474 299.537 159.407 299.488 159.332 299.455C159.258 299.421 159.178 299.404 159.097 299.404H144.355C144.274 299.404 144.194 299.421 144.119 299.455C144.045 299.488 143.977 299.537 143.92 299.599C143.863 299.662 143.818 299.735 143.787 299.816C143.756 299.897 143.74 299.984 143.74 300.072V303.442H134.526V300.072C134.526 299.984 134.51 299.897 134.479 299.816C134.448 299.735 134.403 299.662 134.346 299.599C134.289 299.537 134.221 299.488 134.147 299.455C134.072 299.421 133.993 299.404 133.912 299.404H119.169C119.089 299.404 119.009 299.421 118.934 299.455C118.86 299.488 118.792 299.537 118.735 299.599C118.678 299.662 118.633 299.735 118.602 299.816C118.571 299.897 118.555 299.984 118.555 300.072V303.442H109.341V300.072C109.341 299.984 109.325 299.897 109.294 299.816C109.263 299.735 109.218 299.662 109.161 299.599C109.104 299.537 109.036 299.488 108.962 299.455C108.887 299.421 108.807 299.404 108.727 299.404H93.984C93.9033 299.404 93.8234 299.421 93.7489 299.455C93.6744 299.488 93.6067 299.537 93.5496 299.599C93.4926 299.662 93.4473 299.735 93.4165 299.816C93.3856 299.897 93.3697 299.984 93.3697 300.072V303.442H84.1556V300.072C84.1556 299.984 84.1397 299.897 84.1089 299.816C84.078 299.735 84.0327 299.662 83.9757 299.599C83.9187 299.537 83.8509 299.488 83.7764 299.455C83.7019 299.421 83.622 299.404 83.5413 299.404H68.7987C68.7181 299.404 68.6382 299.421 68.5637 299.455C68.4891 299.488 68.4214 299.537 68.3644 299.599C68.3073 299.662 68.2621 299.735 68.2312 299.816C68.2004 299.897 68.1845 299.984 68.1845 300.072V303.442H58.9704V300.072C58.9704 299.984 58.9545 299.897 58.9236 299.816C58.8927 299.735 58.8475 299.662 58.7904 299.599C58.7334 299.537 58.6657 299.488 58.5912 299.455C58.5166 299.421 58.4367 299.404 58.3561 299.404H43.6135C43.5328 299.404 43.4529 299.421 43.3784 299.455C43.3039 299.488 43.2362 299.537 43.1791 299.599C43.1221 299.662 43.0768 299.735 43.046 299.816C43.0151 299.897 42.9992 299.984 42.9992 300.072V303.442H14.7426C10.8326 303.442 7.08278 305.131 4.31801 308.139C1.55324 311.146 3.72504e-06 315.225 0 319.478V326.729C1.11751e-05 330.983 1.55325 335.061 4.31802 338.069C7.08279 341.076 10.8326 342.766 14.7426 342.766H504.934C508.844 342.766 512.593 341.076 515.358 338.069C518.123 335.061 519.676 330.983 519.676 326.729V319.478C519.676 315.225 518.123 311.146 515.358 308.139C512.593 305.131 508.844 303.442 504.934 303.442Z" fill="#3F3D56"/>
<path d="M114.59 270.833C104.034 270.833 93.7146 267.428 84.9376 261.049C76.1606 254.669 69.3197 245.602 65.2801 234.994C61.2405 224.386 60.1836 212.713 62.2429 201.451C64.3023 190.189 69.3855 179.845 76.8498 171.725C84.314 163.606 93.824 158.077 104.177 155.837C114.53 153.597 125.262 154.746 135.014 159.14C144.767 163.535 153.102 170.976 158.967 180.523C164.832 190.07 167.962 201.295 167.962 212.777C167.946 228.169 162.317 242.926 152.312 253.809C142.306 264.693 128.74 270.815 114.59 270.833ZM114.59 156.249C104.311 156.249 94.2639 159.564 85.7179 165.776C77.1719 171.987 70.5111 180.816 66.5777 191.145C62.6444 201.474 61.6153 212.84 63.6205 223.805C65.6257 234.77 70.5751 244.843 77.8429 252.748C85.1107 260.654 94.3705 266.038 104.451 268.219C114.532 270.4 124.981 269.28 134.477 265.002C143.973 260.724 152.089 253.478 157.799 244.182C163.509 234.886 166.557 223.957 166.557 212.777C166.542 197.79 161.061 183.422 151.319 172.824C141.577 162.227 128.367 156.266 114.59 156.249Z" fill="#3F3D56"/>
<path d="M590.725 24.8596H411.648V26.3874H590.725V24.8596Z" fill="#3F3D56"/>
<path d="M800 428.194H285.24V429.722H800V428.194Z" fill="#3F3D56"/>
<path d="M314.384 498.472H135.307V500H314.384V498.472Z" fill="#3F3D56"/>
<path d="M350.43 420.14H330.767V441.529H350.43V420.14Z" fill="#E1B7D8"/>
<path d="M362.369 429.307H338.492V403.334H362.369V429.307ZM339.53 428.178H361.331V404.464H339.53V428.178Z" fill="#3F3D56"/>
<path d="M578.666 16.8057H559.003V38.1946H578.666V16.8057Z" fill="#E1B7D8"/>
<path d="M590.605 25.9723H566.728V0H590.605V25.9723ZM567.766 24.8431H589.567V1.12923H567.766V24.8431Z" fill="#3F3D56"/>
<path d="M776.705 420.14H757.042V441.529H776.705V420.14Z" fill="#E1B7D8"/>
<path d="M788.644 429.307H764.767V403.334H788.644V429.307ZM765.805 428.178H787.606V404.464H765.805V428.178Z" fill="#3F3D56"/>
<path d="M742.415 177.191H740.744V127.415C740.744 123.631 740.059 119.885 738.728 116.39C737.397 112.895 735.446 109.719 732.987 107.043C730.527 104.368 727.608 102.246 724.394 100.798C721.181 99.3506 717.737 98.6055 714.259 98.6055H617.309C613.831 98.6055 610.387 99.3506 607.173 100.798C603.96 102.246 601.04 104.368 598.581 107.043C596.122 109.719 594.171 112.895 592.84 116.39C591.509 119.885 590.824 123.631 590.824 127.415V400.492C590.824 404.275 591.509 408.021 592.84 411.517C594.171 415.012 596.122 418.188 598.581 420.863C601.04 423.538 603.96 425.66 607.173 427.108C610.387 428.556 613.831 429.301 617.309 429.301H714.259C717.737 429.301 721.181 428.556 724.394 427.108C727.608 425.66 730.528 423.538 732.987 420.863C735.446 418.188 737.397 415.012 738.728 411.517C740.059 408.021 740.744 404.275 740.744 400.492V212.623H742.415V177.191Z" fill="#3F3D56"/>
<path d="M735.104 129.108V401.787C735.105 407.493 733.022 412.966 729.313 417.001C725.605 421.037 720.574 423.304 715.328 423.305H617.91C612.664 423.304 607.634 421.037 603.925 417.001C600.216 412.966 598.133 407.493 598.134 401.787V129.108C598.135 123.403 600.219 117.932 603.927 113.898C607.636 109.864 612.665 107.597 617.91 107.597H629.729C629.148 109.149 628.926 110.832 629.083 112.499C629.241 114.167 629.773 115.766 630.632 117.157C631.492 118.548 632.653 119.687 634.013 120.475C635.372 121.263 636.89 121.675 638.43 121.675H693.972C695.513 121.675 697.03 121.263 698.39 120.475C699.75 119.687 700.911 118.548 701.771 117.157C702.63 115.766 703.162 114.167 703.319 112.499C703.477 110.832 703.255 109.149 702.673 107.597H715.328C720.573 107.597 725.603 109.864 729.311 113.898C733.02 117.932 735.104 123.403 735.104 129.108Z" fill="#E1B7D8"/>
<path d="M681.129 287.39H652.109V296.744H681.129V287.39Z" fill="#3F3D56"/>
<path d="M716.213 214.558H617.025V218.567H716.213V214.558Z" fill="#3F3D56"/>
<path d="M716.213 227.253H617.025V231.262H716.213V227.253Z" fill="#3F3D56"/>
<path d="M716.213 239.949H617.025V243.958H716.213V239.949Z" fill="#3F3D56"/>
<path d="M716.213 252.644H617.025V256.653H716.213V252.644Z" fill="#3F3D56"/>
<path d="M716.213 265.339H617.025V269.348H716.213V265.339Z" fill="#3F3D56"/>
<path d="M670.084 161.317H652.884V180.026H670.084V161.317Z" fill="#F2F2F2"/>
<path d="M659.469 165.996V188.714H680.354V165.996H659.469ZM679.448 187.729H660.375V166.982H679.448V187.729Z" fill="#3F3D56"/>
<path opacity="0.1" d="M735.104 372.667V401.787C735.105 407.493 733.022 412.966 729.313 417.001C725.605 421.037 720.574 423.304 715.328 423.305H617.91C612.664 423.304 607.634 421.037 603.925 417.001C600.216 412.966 598.133 407.493 598.134 401.787V254.959L680.208 325.489L681.613 326.696L696.88 339.812L698.305 341.042L735.104 372.667Z" fill="black"/>
<path d="M658.192 414.468C675.206 414.468 688.999 399.465 688.999 380.958C688.999 362.451 675.206 347.448 658.192 347.448C641.178 347.448 627.385 362.451 627.385 380.958C627.385 399.465 641.178 414.468 658.192 414.468Z" fill="#F2F2F2"/>
<path d="M224.845 500C212.761 500 200.949 496.102 190.901 488.8C180.854 481.497 173.023 471.118 168.399 458.974C163.775 446.83 162.565 433.468 164.922 420.576C167.28 407.684 173.098 395.843 181.643 386.548C190.188 377.254 201.074 370.924 212.926 368.36C224.777 365.796 237.062 367.112 248.226 372.142C259.39 377.172 268.932 385.69 275.646 396.619C282.359 407.548 285.942 420.397 285.942 433.542C285.924 451.161 279.481 468.054 268.027 480.513C256.573 492.972 241.044 499.98 224.845 500ZM224.845 368.611C213.039 368.611 201.498 372.419 191.682 379.554C181.865 386.688 174.214 396.829 169.696 408.694C165.178 420.558 163.996 433.614 166.3 446.209C168.603 458.804 174.288 470.374 182.636 479.455C190.984 488.535 201.621 494.719 213.2 497.225C224.779 499.73 236.781 498.444 247.689 493.53C258.596 488.615 267.919 480.293 274.478 469.615C281.037 458.937 284.538 446.384 284.538 433.542C284.52 416.327 278.225 399.823 267.034 387.65C255.844 375.477 240.671 368.63 224.845 368.611Z" fill="#3F3D56"/>
<path d="M667.272 406.805C659.633 406.805 652.165 404.341 645.814 399.725C639.462 395.108 634.511 388.547 631.588 380.869C628.664 373.192 627.899 364.745 629.39 356.595C630.88 348.445 634.559 340.959 639.961 335.083C645.362 329.207 652.245 325.206 659.737 323.585C667.229 321.964 674.996 322.796 682.053 325.975C689.111 329.155 695.143 334.54 699.387 341.45C703.632 348.359 705.897 356.482 705.897 364.791C705.885 375.93 701.812 386.609 694.571 394.486C687.33 402.362 677.513 406.793 667.272 406.805ZM667.272 324.305C659.911 324.305 652.715 326.68 646.594 331.128C640.473 335.577 635.702 341.9 632.885 349.298C630.068 356.696 629.331 364.836 630.767 372.69C632.203 380.543 635.748 387.757 640.954 393.42C646.159 399.082 652.791 402.938 660.011 404.5C667.231 406.062 674.715 405.26 681.516 402.196C688.317 399.132 694.13 393.942 698.22 387.284C702.309 380.626 704.492 372.799 704.492 364.791C704.481 354.057 700.556 343.767 693.579 336.177C686.601 328.587 677.14 324.317 667.272 324.305Z" fill="#3F3D56"/>
</g>
<defs>
<clipPath id="clip0_22_147">
<rect width="800" height="500" fill="white"/>
</clipPath>
</defs>
</svg>
