<svg width="942" height="288" viewBox="0 0 942 288" fill="none" xmlns="http://www.w3.org/2000/svg">
<path d="M122.172 47.25C145.932 47.25 163.752 50.04 175.632 55.62C187.512 61.02 193.452 69.75 193.452 81.81C193.452 93.69 189.762 102.78 182.382 109.08C175.182 115.2 166.902 118.26 157.542 118.26C148.182 118.26 139.722 115.92 132.162 111.24C124.782 106.38 119.652 99.99 116.772 92.07C110.112 92.07 103.722 94.32 97.6016 98.82C91.6616 103.14 87.8816 108.81 86.2616 115.83C121.902 124.47 147.462 134.55 162.942 146.07C178.422 157.59 186.162 172.35 186.162 190.35C186.162 208.35 177.972 222.75 161.592 233.55C145.392 244.35 123.432 249.75 95.7116 249.75C68.1716 249.75 48.6416 245.97 37.1216 238.41C25.6016 230.85 19.8416 220.86 19.8416 208.44C19.8416 196.02 23.7116 184.59 31.4516 174.15C35.2316 182.25 42.4316 189.54 53.0516 196.02C63.8516 202.5 74.4716 205.74 84.9116 205.74C104.172 205.74 116.412 199.62 121.632 187.38C91.7516 183.42 68.9816 175.14 53.3216 162.54C37.6616 149.76 29.8316 134.37 29.8316 116.37C29.8316 104.31 33.0716 93.6 39.5516 84.24C46.0316 74.7 54.3116 67.41 64.3916 62.37C84.1916 52.29 103.452 47.25 122.172 47.25ZM245.96 75.06L230.84 53.46C253.34 40.32 271.07 33.75 284.03 33.75C291.41 33.75 296.63 35.28 299.69 38.34C302.75 41.22 304.28 46.17 304.28 53.19C304.28 60.03 303.11 69.66 300.77 82.08C298.61 94.5 295.64 109.17 291.86 126.09C288.26 143.01 285.65 156.6 284.03 166.86L301.04 151.74C302.66 150.3 305.27 148.05 308.87 144.99C312.65 141.75 315.26 139.41 316.7 137.97C318.32 136.53 320.48 134.55 323.18 132.03C325.88 129.33 327.86 127.08 329.12 125.28C330.38 123.48 331.82 121.41 333.44 119.07C335.96 115.11 337.22 110.7 337.22 105.84C337.22 100.8 336.5 96.39 335.06 92.61C347.84 84.87 359.9 81 371.24 81C378.8 81 384.83 83.43 389.33 88.29C393.83 92.97 396.08 99.81 396.08 108.81C396.08 117.81 391.94 126.9 383.66 136.08C375.56 145.08 365.48 153 353.42 159.84C359 178.38 366.2 195.39 375.02 210.87C383.84 226.35 391.22 235.62 397.16 238.68C389.96 246.06 378.8 249.75 363.68 249.75C352.52 249.75 343.07 245.97 335.33 238.41C327.77 230.85 321.02 218.43 315.08 201.15L308.33 181.98L280.52 195.75C280.34 197.73 280.25 200.7 280.25 204.66C280.25 219.6 283.04 230.22 288.62 236.52C276.02 245.34 264.59 249.75 254.33 249.75C244.07 249.75 236.51 246.42 231.65 239.76C226.97 232.92 224.63 223.56 224.63 211.68C224.63 199.8 227.96 175.5 234.62 138.78C241.28 102.06 245.06 80.82 245.96 75.06ZM515.321 38.34C515.321 45.18 511.721 51.12 504.521 56.16C497.321 61.02 489.131 63.45 479.951 63.45C470.771 63.45 463.481 61.65 458.081 58.05C452.861 54.45 450.251 49.59 450.251 43.47C450.251 35.19 454.121 28.71 461.861 24.03C469.601 19.35 477.791 17.01 486.431 17.01C495.071 17.01 502.001 18.81 507.221 22.41C512.621 26.01 515.321 31.32 515.321 38.34ZM462.671 249.75C451.511 249.75 443.411 246.96 438.371 241.38C433.331 235.8 430.811 227.34 430.811 216C430.811 204.48 436.571 173.79 448.091 123.93L432.971 101.25C455.471 87.75 473.201 81 486.161 81C493.541 81 498.761 82.62 501.821 85.86C504.881 88.92 506.411 93.96 506.411 100.98C506.411 103.68 503.081 119.52 496.421 148.5C489.761 177.48 486.431 198.18 486.431 210.6C486.431 223.02 489.221 231.66 494.801 236.52C484.721 245.34 474.011 249.75 462.671 249.75ZM568.969 75.06L553.849 53.46C576.349 40.32 594.079 33.75 607.039 33.75C614.419 33.75 619.639 35.28 622.699 38.34C625.759 41.22 627.289 46.8 627.289 55.08C627.289 63.18 623.239 86.22 615.139 124.2C607.219 162.18 603.259 188.82 603.259 204.12C603.259 219.42 606.049 230.22 611.629 236.52C599.029 245.34 587.599 249.75 577.339 249.75C567.079 249.75 559.519 246.42 554.659 239.76C549.979 232.92 547.639 223.56 547.639 211.68C547.639 199.8 550.969 175.5 557.629 138.78C564.289 102.06 568.069 80.82 568.969 75.06ZM683.656 75.06L668.536 53.46C691.036 40.32 708.766 33.75 721.726 33.75C729.106 33.75 734.326 35.28 737.386 38.34C740.446 41.22 741.976 46.8 741.976 55.08C741.976 63.18 737.926 86.22 729.826 124.2C721.906 162.18 717.946 188.82 717.946 204.12C717.946 219.42 720.736 230.22 726.316 236.52C713.716 245.34 702.286 249.75 692.026 249.75C681.766 249.75 674.206 246.42 669.346 239.76C664.666 232.92 662.326 223.56 662.326 211.68C662.326 199.8 665.656 175.5 672.316 138.78C678.976 102.06 682.756 80.82 683.656 75.06ZM859.092 116.91C852.432 118.89 847.122 121.77 843.162 125.55C839.202 129.15 835.692 134.37 832.632 141.21C863.052 145.71 884.472 152.19 896.892 160.65C909.312 169.11 915.522 181.17 915.522 196.83C915.522 206.73 912.732 215.37 907.152 222.75C901.572 229.95 894.552 235.44 886.092 239.22C869.532 246.24 853.242 249.75 837.222 249.75C791.682 249.75 768.912 239.94 768.912 220.32C768.912 210.42 773.322 200.52 782.142 190.62C786.642 196.92 793.392 202.32 802.392 206.82C811.572 211.32 820.482 213.57 829.122 213.57C844.062 213.57 853.062 207 856.122 193.86C828.762 190.62 808.962 184.5 796.722 175.5C784.482 166.5 778.362 153.81 778.362 137.43C778.362 124.47 782.592 113.58 791.052 104.76C799.692 95.94 810.312 89.82 822.912 86.4C835.692 82.8 850.002 81 865.842 81C881.862 81 895.002 84.06 905.262 90.18C915.702 96.12 920.922 103.41 920.922 112.05C920.922 120.69 917.862 127.35 911.742 132.03C905.802 136.71 899.232 139.05 892.032 139.05C885.012 139.05 878.532 137.16 872.592 133.38C866.832 129.6 862.332 124.11 859.092 116.91Z" fill="#E1B7D8" fill-opacity="0.07"/>
<g filter="url(#filter0_d_17_12)">
<path d="M351.804 133.5C360.604 133.5 367.204 134.533 371.604 136.6C376.004 138.6 378.204 141.833 378.204 146.3C378.204 150.7 376.838 154.067 374.104 156.4C371.438 158.667 368.371 159.8 364.904 159.8C361.438 159.8 358.304 158.933 355.504 157.2C352.771 155.4 350.871 153.033 349.804 150.1C347.338 150.1 344.971 150.933 342.704 152.6C340.504 154.2 339.104 156.3 338.504 158.9C351.704 162.1 361.171 165.833 366.904 170.1C372.638 174.367 375.504 179.833 375.504 186.5C375.504 193.167 372.471 198.5 366.404 202.5C360.404 206.5 352.271 208.5 342.004 208.5C331.804 208.5 324.571 207.1 320.304 204.3C316.038 201.5 313.904 197.8 313.904 193.2C313.904 188.6 315.338 184.367 318.204 180.5C319.604 183.5 322.271 186.2 326.204 188.6C330.204 191 334.138 192.2 338.004 192.2C345.138 192.2 349.671 189.933 351.604 185.4C340.538 183.933 332.104 180.867 326.304 176.2C320.504 171.467 317.604 165.767 317.604 159.1C317.604 154.633 318.804 150.667 321.204 147.2C323.604 143.667 326.671 140.967 330.404 139.1C337.738 135.367 344.871 133.5 351.804 133.5ZM393.652 143.8L388.052 135.8C396.385 130.933 402.952 128.5 407.752 128.5C410.485 128.5 412.419 129.067 413.552 130.2C414.685 131.267 415.252 133.1 415.252 135.7C415.252 138.233 414.819 141.8 413.952 146.4C413.152 151 412.052 156.433 410.652 162.7C409.319 168.967 408.352 174 407.752 177.8L414.052 172.2C414.652 171.667 415.619 170.833 416.952 169.7C418.352 168.5 419.319 167.633 419.852 167.1C420.452 166.567 421.252 165.833 422.252 164.9C423.252 163.9 423.985 163.067 424.452 162.4C424.919 161.733 425.452 160.967 426.052 160.1C426.985 158.633 427.452 157 427.452 155.2C427.452 153.333 427.185 151.7 426.652 150.3C431.385 147.433 435.852 146 440.052 146C442.852 146 445.085 146.9 446.752 148.7C448.419 150.433 449.252 152.967 449.252 156.3C449.252 159.633 447.719 163 444.652 166.4C441.652 169.733 437.919 172.667 433.452 175.2C435.519 182.067 438.185 188.367 441.452 194.1C444.719 199.833 447.452 203.267 449.652 204.4C446.985 207.133 442.852 208.5 437.252 208.5C433.119 208.5 429.619 207.1 426.752 204.3C423.952 201.5 421.452 196.9 419.252 190.5L416.752 183.4L406.452 188.5C406.385 189.233 406.352 190.333 406.352 191.8C406.352 197.333 407.385 201.267 409.452 203.6C404.785 206.867 400.552 208.5 396.752 208.5C392.952 208.5 390.152 207.267 388.352 204.8C386.619 202.267 385.752 198.8 385.752 194.4C385.752 190 386.985 181 389.452 167.4C391.919 153.8 393.319 145.933 393.652 143.8ZM489.415 130.2C489.415 132.733 488.082 134.933 485.415 136.8C482.749 138.6 479.715 139.5 476.315 139.5C472.915 139.5 470.215 138.833 468.215 137.5C466.282 136.167 465.315 134.367 465.315 132.1C465.315 129.033 466.749 126.633 469.615 124.9C472.482 123.167 475.515 122.3 478.715 122.3C481.915 122.3 484.482 122.967 486.415 124.3C488.415 125.633 489.415 127.6 489.415 130.2ZM469.915 208.5C465.782 208.5 462.782 207.467 460.915 205.4C459.049 203.333 458.115 200.2 458.115 196C458.115 191.733 460.249 180.367 464.515 161.9L458.915 153.5C467.249 148.5 473.815 146 478.615 146C481.349 146 483.282 146.6 484.415 147.8C485.549 148.933 486.115 150.8 486.115 153.4C486.115 154.4 484.882 160.267 482.415 171C479.949 181.733 478.715 189.4 478.715 194C478.715 198.6 479.749 201.8 481.815 203.6C478.082 206.867 474.115 208.5 469.915 208.5ZM505.285 143.8L499.685 135.8C508.018 130.933 514.585 128.5 519.385 128.5C522.118 128.5 524.051 129.067 525.185 130.2C526.318 131.267 526.885 133.333 526.885 136.4C526.885 139.4 525.385 147.933 522.385 162C519.451 176.067 517.985 185.933 517.985 191.6C517.985 197.267 519.018 201.267 521.085 203.6C516.418 206.867 512.185 208.5 508.385 208.5C504.585 208.5 501.785 207.267 499.985 204.8C498.251 202.267 497.385 198.8 497.385 194.4C497.385 190 498.618 181 501.085 167.4C503.551 153.8 504.951 145.933 505.285 143.8ZM543.761 143.8L538.161 135.8C546.495 130.933 553.061 128.5 557.861 128.5C560.595 128.5 562.528 129.067 563.661 130.2C564.795 131.267 565.361 133.333 565.361 136.4C565.361 139.4 563.861 147.933 560.861 162C557.928 176.067 556.461 185.933 556.461 191.6C556.461 197.267 557.495 201.267 559.561 203.6C554.895 206.867 550.661 208.5 546.861 208.5C543.061 208.5 540.261 207.267 538.461 204.8C536.728 202.267 535.861 198.8 535.861 194.4C535.861 190 537.095 181 539.561 167.4C542.028 153.8 543.428 145.933 543.761 143.8ZM604.738 159.3C602.271 160.033 600.305 161.1 598.838 162.5C597.371 163.833 596.071 165.767 594.938 168.3C606.205 169.967 614.138 172.367 618.738 175.5C623.338 178.633 625.638 183.1 625.638 188.9C625.638 192.567 624.605 195.767 622.538 198.5C620.471 201.167 617.871 203.2 614.738 204.6C608.605 207.2 602.571 208.5 596.638 208.5C579.771 208.5 571.338 204.867 571.338 197.6C571.338 193.933 572.971 190.267 576.238 186.6C577.905 188.933 580.405 190.933 583.738 192.6C587.138 194.267 590.438 195.1 593.638 195.1C599.171 195.1 602.505 192.667 603.638 187.8C593.505 186.6 586.171 184.333 581.638 181C577.105 177.667 574.838 172.967 574.838 166.9C574.838 162.1 576.405 158.067 579.538 154.8C582.738 151.533 586.671 149.267 591.338 148C596.071 146.667 601.371 146 607.238 146C613.171 146 618.038 147.133 621.838 149.4C625.705 151.6 627.638 154.3 627.638 157.5C627.638 160.7 626.505 163.167 624.238 164.9C622.038 166.633 619.605 167.5 616.938 167.5C614.338 167.5 611.938 166.8 609.738 165.4C607.605 164 605.938 161.967 604.738 159.3Z" fill="#E1B7D8"/>
</g>
<defs>
<filter id="filter0_d_17_12" x="309.904" y="122.3" width="321.734" height="94.2" filterUnits="userSpaceOnUse" color-interpolation-filters="sRGB">
<feFlood flood-opacity="0" result="BackgroundImageFix"/>
<feColorMatrix in="SourceAlpha" type="matrix" values="0 0 0 0 0 0 0 0 0 0 0 0 0 0 0 0 0 0 127 0" result="hardAlpha"/>
<feOffset dy="4"/>
<feGaussianBlur stdDeviation="2"/>
<feComposite in2="hardAlpha" operator="out"/>
<feColorMatrix type="matrix" values="0 0 0 0 0 0 0 0 0 0 0 0 0 0 0 0 0 0 0.25 0"/>
<feBlend mode="normal" in2="BackgroundImageFix" result="effect1_dropShadow_17_12"/>
<feBlend mode="normal" in="SourceGraphic" in2="effect1_dropShadow_17_12" result="shape"/>
</filter>
</defs>
</svg>
