<svg xmlns="http://www.w3.org/2000/svg" width="28" height="28"><circle cx="14" cy="14" r="14" fill="#50b748" fill-rule="evenodd"/><path fill="#fff" d="M17.498 6c-.219.002-.436.02-.652.055l-.102.013A4.499 4.499 0 0 0 13.265 9H7.16C6.52 9 6 9.52 6 10.16v2.68c0 .25.099.47.234.66a1.13 1.13 0 0 0-.234.66v2.68c0 .25.099.47.234.66a1.13 1.13 0 0 0-.234.66v2.68c0 .64.52 1.16 1.16 1.16h10.668c.64 0 1.158-.52 1.158-1.16v-2.68c0-.25-.094-.47-.23-.66.136-.19.23-.41.23-.66v-2.1a4.496 4.496 0 0 0 2.162-1.62v-.005c.133-.182.252-.374.356-.574l.002-.004.004-.008c.084-.17.157-.344.219-.523a4.385 4.385 0 0 0 .18-.649 4.42 4.42 0 0 0 .048-.334c.016-.129.027-.258.031-.388.002-.045.012-.088.012-.133 0-.04-.01-.077-.012-.117a4.501 4.501 0 0 0-.318-1.549c-.02-.05-.039-.1-.06-.148a4.503 4.503 0 0 0-.36-.66c-.012-.018-.021-.038-.033-.055a4.488 4.488 0 0 0-.492-.602l-.067-.07a4.504 4.504 0 0 0-.601-.496l-.067-.047a4.502 4.502 0 0 0-.676-.367l-.11-.05a4.478 4.478 0 0 0-.72-.226l-.13-.029A4.498 4.498 0 0 0 17.498 6Zm.004 1.002c.236 0 .468.023.691.068h.004l.035.01c.218.047.43.112.631.197.204.087.396.193.578.315l.018.012c.17.115.33.249.477.392l.054.049c.134.135.253.284.364.44.024.032.047.065.07.099a3.51 3.51 0 0 1 .318.615c.065.162.118.33.158.502.013.055.023.11.034.164a3.505 3.505 0 0 1-.239 2.05 3.502 3.502 0 0 1-.252.466 3.501 3.501 0 0 1-.058.096l-.016.021a3.52 3.52 0 0 1-.344.416 3.483 3.483 0 0 1-.078.084 3.538 3.538 0 0 1-.441.361l-.084.061a3.467 3.467 0 0 1-.494.27 3.477 3.477 0 0 1-.114.05 3.47 3.47 0 0 1-.54.168c-.039.01-.077.02-.116.028-.203.038-.413.06-.627.062l-.033.002-.03-.002a3.487 3.487 0 0 1-.652-.066l-.011-.002-.032-.008a3.499 3.499 0 0 1-2.166-1.461l-.005-.006a3.507 3.507 0 0 1-.317-.586l-.006-.014a3.466 3.466 0 0 1-.273-1.353c0-1.444.878-2.684 2.127-3.219l.017-.008a3.471 3.471 0 0 1 .666-.205c.222-.044.45-.068.686-.068zm.004 1c-.668 0-1.296.261-1.77.734a2.505 2.505 0 0 0 .004 3.535.5.5 0 0 0 .707 0l1.069-1.072-.707-.707-.657.658a1.504 1.504 0 0 1 .291-1.707c.286-.286.663-.424 1.069-.441l.004-1h-.01zm1.408.584a.501.501 0 0 0-.353.144L17.5 9.795l.71.707.646-.648c.095.199.145.416.145.644 0 .401-.155.778-.438 1.063a1.471 1.471 0 0 1-1.093.441l-.022 1h.053c.67 0 1.296-.26 1.77-.734.471-.473.729-1.102.728-1.77a2.49 2.49 0 0 0-.732-1.768.499.499 0 0 0-.354-.144zM7.16 10h5.875a4.5 4.5 0 0 0-.033.5 4.5 4.5 0 0 0 .05.637l.014.086c.068.415.194.819.373 1.199l.014.03c.09.19.193.372.309.548H7.16a.161.161 0 0 1-.162-.16v-2.68c0-.089.073-.16.162-.16Zm.858 1v1h2.996v-1H8.018zm-.858 3h7.516c.8.647 1.794 1 2.822 1h.002l.002.002c.014 0 .027-.004.041-.004.149-.002.298-.01.445-.027v1.869a.16.16 0 0 1-.16.16H7.16a.161.161 0 0 1-.162-.16v-2.68c0-.089.073-.16.162-.16Zm.858 1v1h2.996v-1H8.018zm8 0v1h.998v-1h-.998zM7.16 18h10.668a.16.16 0 0 1 .16.16v2.68a.16.16 0 0 1-.16.16H7.16a.161.161 0 0 1-.162-.16v-2.68c0-.089.073-.16.162-.16Zm.858 1v1h2.996v-1H8.018zm8 0v1h.998v-1h-.998z"/></svg>